<?xml version="1.0" standalone="no"?>
<!DOCTYPE svg PUBLIC "-//W3C//DTD SVG 20010904//EN"
 "http://www.w3.org/TR/2001/REC-SVG-20010904/DTD/svg10.dtd">
<svg version="1.0" xmlns="http://www.w3.org/2000/svg"
 width="1200.000000pt" height="1200.000000pt" viewBox="0 0 1200.000000 1200.000000"
 preserveAspectRatio="xMidYMid meet">

<g transform="translate(0.000000,1200.000000) scale(0.100000,-0.100000)"
fill="#000000" stroke="none">
<path d="M5954 11556 c-43 -19 -64 -53 -64 -104 0 -70 69 -125 136 -108 15 4
39 20 55 36 23 23 29 37 29 72 0 52 -21 85 -66 104 -41 17 -50 17 -90 0z"/>
<path d="M5668 11543 c-67 -43 -66 -157 3 -193 11 -6 39 -12 61 -12 36 0 47 5
76 37 31 34 34 42 29 82 -6 60 -40 94 -98 99 -31 3 -52 -1 -71 -13z"/>
<path d="M6225 11551 c-35 -15 -57 -49 -62 -94 -5 -40 -2 -49 29 -82 29 -32
40 -37 76 -37 69 1 112 39 114 101 3 87 -77 144 -157 112z"/>
<path d="M5398 11523 c-81 -50 -65 -170 26 -200 45 -16 91 0 124 42 73 92 -49
220 -150 158z"/>
<path d="M6488 11524 c-83 -45 -72 -162 18 -200 67 -28 148 27 148 100 0 90
-88 143 -166 100z"/>
<path d="M5140 11492 c-49 -24 -76 -80 -61 -125 24 -71 98 -105 159 -73 82 43
80 161 -4 201 -41 19 -51 19 -94 -3z"/>
<path d="M6762 11494 c-81 -41 -81 -158 0 -200 89 -46 193 48 154 139 -26 63
-96 90 -154 61z"/>
<path d="M4874 11450 c-61 -24 -85 -121 -44 -173 67 -85 200 -36 200 73 0 77
-82 130 -156 100z"/>
<path d="M7023 11441 c-39 -24 -53 -49 -53 -93 0 -78 73 -132 145 -108 49 16
75 53 75 106 0 88 -93 141 -167 95z"/>
<path d="M4598 11385 c-80 -45 -74 -161 10 -201 61 -29 125 0 151 68 34 90
-77 181 -161 133z"/>
<path d="M7305 11390 c-52 -21 -83 -87 -64 -137 36 -94 152 -108 202 -24 54
92 -40 202 -138 161z"/>
<path d="M4354 11316 c-51 -22 -77 -64 -71 -115 6 -58 40 -92 100 -98 40 -5
48 -2 82 29 32 29 38 41 38 74 0 47 -15 79 -46 98 -35 22 -70 26 -103 12z"/>
<path d="M7571 11317 c-63 -22 -94 -101 -62 -160 32 -61 129 -74 178 -24 82
81 -7 222 -116 184z"/>
<path d="M4081 11223 c-32 -16 -61 -62 -61 -99 0 -62 72 -121 134 -110 40 8
84 52 92 93 9 43 -19 98 -61 117 -42 20 -61 20 -104 -1z"/>
<path d="M7813 11224 c-18 -9 -39 -31 -48 -51 -45 -94 54 -193 148 -148 35 16
67 64 67 99 0 38 -29 83 -63 99 -43 21 -63 21 -104 1z"/>
<path d="M3823 11121 c-39 -24 -53 -49 -53 -93 0 -78 73 -132 145 -108 49 16
75 53 75 106 0 88 -93 141 -167 95z"/>
<path d="M8074 11130 c-61 -24 -85 -121 -44 -173 67 -85 200 -36 200 73 0 77
-82 130 -156 100z"/>
<path d="M3584 11015 c-85 -43 -83 -166 3 -202 48 -20 92 -10 129 28 83 87
-24 229 -132 174z"/>
<path d="M8325 11020 c-72 -29 -93 -124 -41 -179 37 -38 81 -48 129 -28 37 16
67 59 67 97 0 78 -86 139 -155 110z"/>
<path d="M5765 10999 c-157 -14 -327 -46 -542 -100 -275 -70 -319 -78 -478
-94 -108 -10 -166 -22 -253 -50 -370 -120 -995 -427 -1357 -668 -155 -103
-211 -146 -320 -248 -50 -46 -198 -183 -330 -304 -406 -371 -452 -419 -558
-578 -52 -78 -142 -221 -199 -317 -58 -96 -119 -196 -137 -222 -90 -132 -263
-575 -322 -824 -11 -47 -24 -120 -29 -162 -7 -63 -18 -94 -59 -173 -96 -181
-145 -326 -182 -536 -30 -169 -36 -469 -15 -733 8 -113 20 -286 26 -385 24
-403 57 -661 110 -861 28 -105 245 -661 345 -884 111 -249 269 -501 491 -785
197 -253 230 -298 259 -355 100 -198 287 -406 543 -603 52 -40 140 -107 195
-151 134 -103 305 -215 561 -367 199 -117 213 -123 273 -127 80 -5 112 8 167
69 l43 48 84 -22 84 -22 6 -70 c18 -194 134 -321 346 -376 59 -15 131 -23 298
-29 431 -18 583 -35 806 -94 198 -52 278 -60 554 -53 267 6 294 10 515 72 85
24 274 69 420 100 395 83 519 123 610 195 51 41 98 136 106 216 l6 60 67 16
c36 9 73 19 81 22 10 4 26 -11 50 -46 73 -109 183 -140 288 -83 29 16 105 73
169 128 65 54 272 209 460 343 407 290 505 368 639 505 153 158 267 319 403
568 45 83 86 141 153 215 161 179 260 320 346 491 74 147 98 225 138 438 56
306 135 603 248 933 31 89 61 195 68 235 10 55 13 241 13 719 0 579 -2 654
-18 732 -29 144 -62 247 -159 491 -50 128 -123 329 -163 447 -127 376 -248
658 -344 802 -28 41 -92 115 -143 164 -169 162 -198 196 -235 274 -157 334
-202 402 -367 565 -168 166 -374 308 -760 526 -174 99 -296 178 -486 317 -221
162 -388 239 -645 301 -267 64 -926 214 -1105 251 -345 72 -577 96 -765 79z
m382 -64 c213 -28 439 -77 1433 -306 296 -69 442 -136 690 -319 173 -127 304
-211 530 -339 346 -197 525 -323 688 -484 153 -150 233 -268 316 -462 64 -148
99 -197 242 -330 141 -133 205 -221 285 -391 70 -148 165 -392 238 -612 34
-100 101 -285 150 -410 192 -491 186 -450 186 -1227 0 -458 -3 -641 -13 -701
-7 -45 -42 -169 -78 -275 -117 -348 -193 -639 -245 -934 -27 -152 -58 -254
-119 -380 -80 -166 -194 -328 -364 -515 -55 -61 -96 -120 -147 -213 -121 -222
-213 -355 -351 -509 -133 -148 -233 -228 -730 -581 -152 -108 -321 -234 -376
-281 -144 -122 -196 -157 -241 -163 -56 -8 -86 2 -132 44 -67 60 -99 137 -129
308 -28 157 -76 250 -224 430 -69 83 -98 133 -89 148 11 18 73 37 169 52 57
10 117 26 148 42 70 35 187 129 338 271 168 159 199 183 295 232 62 31 99 59
150 114 183 192 381 503 618 971 193 381 271 578 341 860 75 304 104 535 111
890 7 365 -14 650 -77 1022 -81 470 -175 720 -380 1008 -54 77 -176 253 -269
390 -330 486 -471 627 -765 764 -119 56 -200 107 -291 186 -84 73 -128 100
-310 197 -182 97 -319 154 -586 244 -346 116 -699 208 -908 235 l-93 13 -76
153 c-42 84 -79 153 -82 153 -3 0 -39 -67 -79 -149 l-74 -148 -89 -7 c-342
-24 -743 -132 -1179 -316 -185 -79 -542 -258 -685 -343 -278 -166 -577 -424
-884 -763 -194 -215 -222 -262 -350 -579 -80 -197 -100 -233 -213 -378 -128
-164 -199 -315 -261 -559 -81 -313 -110 -564 -111 -938 0 -338 7 -389 116
-817 54 -217 71 -299 79 -399 17 -208 55 -341 154 -530 80 -153 392 -663 466
-762 128 -171 403 -436 590 -570 47 -33 141 -111 210 -172 150 -135 227 -191
369 -266 183 -98 230 -141 215 -198 -3 -13 -39 -63 -80 -110 -40 -48 -83 -105
-95 -127 -11 -22 -35 -107 -54 -187 -38 -167 -62 -238 -105 -305 -50 -80 -124
-107 -203 -74 -54 23 -496 292 -599 364 -492 348 -731 577 -867 830 -24 45
-78 126 -120 181 -524 686 -536 705 -824 1422 -130 326 -149 380 -177 506 -41
189 -62 373 -85 729 -8 132 -22 337 -31 455 -41 537 17 888 201 1233 40 74 49
102 56 170 28 251 234 816 364 997 17 25 65 101 105 170 223 381 293 473 522
685 427 396 655 605 703 643 253 201 820 509 1284 699 219 89 332 123 456 134
161 14 217 24 455 84 248 61 342 81 478 100 134 18 348 18 489 0z m-33 -1395
c81 113 113 150 130 150 36 0 461 -63 468 -69 5 -4 -145 -56 -331 -116 -186
-61 -335 -111 -330 -113 4 -2 116 9 249 23 133 15 243 25 244 23 1 -1 -39 -42
-88 -89 l-91 -86 -177 57 c-98 32 -178 56 -178 54 0 -2 89 -127 198 -276 108
-150 208 -288 222 -307 23 -33 20 -32 -136 49 -87 46 -189 99 -226 119 l-67
36 -3 189 -3 189 -219 -301 c-121 -166 -221 -300 -224 -298 -2 2 15 114 38
248 l42 243 -183 178 c-101 98 -177 177 -169 174 8 -2 170 -55 358 -116 189
-62 345 -111 347 -109 2 2 -45 70 -104 152 l-108 149 111 227 111 227 5 -379
5 -378 109 150z m-330 268 c-20 -40 -37 -74 -38 -75 -2 -3 -541 -83 -557 -83
-5 0 83 -91 196 -202 l206 -203 -46 -264 c-25 -145 -45 -270 -43 -277 2 -9 82
28 251 117 l248 130 247 -130 c165 -87 248 -126 250 -117 2 7 -18 132 -43 277
l-46 264 206 203 c113 111 202 202 198 202 -14 0 -557 80 -559 83 -8 10 -65
130 -62 132 7 7 236 -36 378 -70 277 -68 635 -181 879 -280 128 -51 407 -197
490 -256 31 -22 94 -71 141 -110 63 -52 125 -90 245 -149 309 -153 420 -267
774 -790 83 -124 192 -281 242 -350 158 -221 254 -444 323 -750 48 -216 112
-662 104 -725 -3 -22 -58 21 -575 447 l-573 472 0 258 0 259 28 -15 c15 -9
232 -141 482 -294 437 -268 456 -278 469 -259 13 18 12 22 -5 34 -10 8 -234
145 -496 306 l-478 291 0 253 c0 139 2 253 5 253 3 0 73 -27 156 -61 152 -60
168 -62 169 -23 0 7 -42 29 -92 49 -241 96 -238 94 -238 126 l0 29 -73 0 c-73
0 -74 1 -977 366 -909 368 -919 372 -920 328 0 -6 127 -63 283 -126 155 -63
531 -216 836 -339 l554 -224 -363 -3 -363 -2 -459 280 c-252 154 -462 280
-466 280 -4 0 -13 -9 -19 -19 -11 -17 19 -38 370 -252 210 -128 402 -246 426
-261 l45 -28 -170 0 -169 1 -240 199 c-237 197 -240 199 -259 180 -11 -11 -18
-21 -15 -23 2 -2 94 -77 203 -168 110 -90 207 -169 215 -176 13 -10 -14 -12
-134 -12 l-150 0 -103 115 c-90 99 -106 113 -123 104 -10 -6 -19 -14 -19 -18
0 -4 38 -49 85 -101 47 -51 85 -95 85 -97 0 -2 -58 -4 -129 -4 l-129 0 -44
110 c-23 60 -47 110 -53 110 -5 0 -17 -4 -24 -9 -13 -8 -9 -25 22 -103 20 -51
37 -96 37 -99 0 -4 -27 -9 -60 -12 -33 -3 -75 -14 -95 -25 l-34 -21 -10 32
c-5 18 -24 85 -42 150 -29 109 -33 117 -53 111 -11 -4 -22 -8 -24 -9 -2 -2 15
-73 39 -157 l42 -154 -69 -87 c-37 -48 -71 -87 -74 -87 -4 0 -28 28 -55 62
l-47 61 36 180 c20 99 35 181 33 183 -1 1 -12 5 -24 8 -26 8 -23 16 -59 -176
-15 -82 -30 -148 -33 -148 -3 1 -20 13 -37 28 l-31 27 25 88 c14 48 23 89 21
91 -2 2 -13 6 -25 10 -19 6 -23 -2 -45 -81 l-24 -87 -120 3 c-66 1 -122 4
-124 6 -2 2 18 34 44 70 38 54 44 69 35 80 -7 8 -18 15 -24 15 -6 0 -37 -39
-69 -85 l-58 -85 -95 0 -96 0 28 33 c15 17 68 79 118 135 50 57 91 108 91 114
0 6 -8 16 -17 22 -14 8 -20 7 -30 -6 -7 -9 -69 -80 -138 -157 l-125 -141 -130
0 -130 1 35 31 c514 464 541 490 524 509 -9 10 -20 16 -24 14 -4 -3 -144 -129
-311 -280 l-304 -275 -204 0 c-112 0 -202 2 -200 4 2 2 225 153 494 336 270
183 494 336 499 340 4 5 2 17 -6 29 -14 19 -35 6 -550 -345 l-537 -364 -465 0
-466 0 0 -317 -1 -318 -435 -295 c-240 -162 -438 -298 -441 -303 -7 -12 18
-39 33 -33 6 2 187 123 401 269 213 145 400 272 416 282 l27 17 0 -303 0 -304
-605 -549 c-333 -302 -605 -552 -605 -556 0 -15 29 -32 41 -24 10 6 1003 904
1142 1032 l27 26 0 -316 0 -317 -522 -591 c-288 -325 -523 -596 -523 -602 0
-12 32 -35 38 -28 15 19 930 1055 964 1092 l43 47 0 -432 0 -433 -404 -585
c-398 -575 -404 -584 -384 -601 20 -17 21 -17 47 20 15 20 186 268 380 550
194 281 355 512 357 512 2 0 4 -120 4 -268 l0 -267 -52 -13 c-77 -18 -174 -68
-202 -105 -29 -38 -45 -101 -46 -174 0 -29 -5 -87 -11 -130 l-12 -78 -73 -76
c-112 -116 -150 -217 -142 -375 4 -70 9 -90 34 -131 61 -99 169 -144 354 -148
140 -3 150 -7 150 -51 0 -31 3 -34 30 -34 38 0 45 -17 55 -133 7 -85 25 -138
74 -213 13 -19 10 -32 -23 -118 l-38 -97 -36 27 c-155 116 -384 343 -502 499
-85 112 -370 576 -461 750 -109 210 -141 317 -159 532 -8 94 -25 182 -75 380
-116 455 -141 684 -116 1048 42 600 154 981 370 1255 108 136 130 177 211 379
133 334 152 363 454 682 l101 107 1000 296 c550 163 1007 300 1016 304 24 10
6 56 -18 48 -10 -3 -436 -130 -947 -282 -512 -152 -937 -278 -945 -281 -24 -7
112 120 229 214 58 46 155 117 215 158 139 92 435 251 444 238 4 -7 148 -6
421 3 228 7 434 13 458 13 39 1 42 3 42 28 l0 26 -197 -6 c-109 -4 -299 -9
-423 -12 l-225 -6 85 41 c308 149 704 286 996 345 115 24 310 51 377 54 l27 1
-36 -72z m-2236 -3102 c1 -963 -1 -1753 -5 -1757 -5 -4 -29 -10 -55 -14 l-48
-7 0 1766 0 1767 53 -3 52 -3 3 -1749z m162 9 l0 -1744 -37 -6 c-21 -4 -46 -9
-55 -12 -17 -4 -18 84 -18 1751 l0 1756 55 0 55 0 0 -1745z m160 10 l0 -1735
-32 0 c-18 0 -43 -3 -55 -6 l-23 -6 0 1734 c0 954 3 1738 7 1741 3 4 28 7 55
7 l48 0 0 -1735z m168 -2 l2 -1733 -55 0 -55 0 0 1736 0 1735 53 -3 52 -3 3
-1732z m1717 1711 c44 -24 120 -101 178 -180 35 -48 37 -56 37 -123 l0 -72
-46 57 c-65 79 -102 112 -159 140 -45 21 -63 24 -177 24 l-128 0 0 -25 0 -25
118 0 c168 -1 207 -22 327 -175 57 -73 65 -88 65 -126 l0 -44 -27 35 c-59 75
-115 128 -165 156 l-53 29 -242 3 -243 4 0 -31 0 -30 248 -3 247 -3 48 -35
c27 -19 80 -75 118 -125 60 -80 69 -97 69 -134 l0 -42 -46 58 c-61 77 -99 109
-159 139 -43 20 -65 24 -152 24 l-103 0 0 -25 c0 -25 0 -25 95 -25 59 0 108
-5 129 -14 48 -20 109 -78 177 -168 51 -67 59 -83 59 -120 l-1 -43 -22 30
c-47 64 -119 133 -169 161 -52 29 -55 29 -240 32 l-188 4 0 -25 0 -25 178 -4
c152 -3 183 -6 217 -23 49 -24 104 -78 173 -169 43 -57 52 -76 52 -110 l0 -41
-37 45 c-63 76 -114 122 -167 146 l-51 24 -427 0 -428 0 0 -25 0 -25 420 0
c338 0 427 -3 454 -14 48 -20 109 -78 177 -168 51 -67 59 -83 59 -120 l-1 -43
-22 30 c-47 65 -129 142 -174 165 -28 14 -72 26 -105 28 -57 4 -58 4 -58 -22
0 -23 4 -26 33 -26 90 0 155 -43 254 -168 68 -85 74 -96 71 -133 l-3 -41 -51
64 c-28 35 -77 81 -109 103 l-57 40 -125 3 -125 4 4 -24 c3 -22 7 -23 113 -28
126 -6 151 -17 227 -97 88 -95 128 -159 128 -203 l0 -41 -49 59 c-104 125
-171 162 -293 162 -65 0 -68 -1 -68 -24 0 -22 4 -24 80 -28 106 -6 151 -34
252 -158 71 -87 77 -99 77 -140 l0 -45 -31 40 c-90 113 -164 165 -255 179 -42
6 -43 6 -43 -24 0 -28 3 -30 35 -30 52 0 102 -30 165 -96 95 -100 130 -156
130 -204 l0 -42 -38 49 c-49 61 -120 126 -163 150 -32 17 -79 18 -801 21
l-768 2 0 -25 0 -25 748 0 c701 0 749 -2 787 -19 58 -26 96 -62 170 -157 57
-74 65 -90 65 -127 l-1 -42 -27 35 c-98 126 -176 178 -272 183 -53 2 -55 1
-55 -23 0 -23 4 -25 55 -30 71 -7 103 -25 170 -96 95 -100 130 -156 130 -204
l0 -42 -38 49 c-55 69 -127 131 -175 154 -33 14 -66 19 -149 19 l-108 0 0 -25
c0 -25 0 -25 98 -25 146 -1 191 -27 307 -175 57 -73 65 -88 65 -126 l0 -44
-27 35 c-59 75 -115 128 -165 156 l-53 29 -762 3 -763 3 0 -31 0 -30 768 -2
767 -3 48 -35 c27 -19 80 -75 118 -125 60 -80 69 -97 69 -134 l0 -42 -46 58
c-99 124 -167 163 -286 163 -77 0 -78 0 -78 -25 0 -24 2 -25 70 -25 39 0 86
-6 104 -14 48 -20 109 -78 177 -168 51 -67 59 -83 59 -120 l-1 -43 -22 30
c-47 64 -119 133 -169 161 l-53 29 -382 3 -383 3 0 -25 0 -25 373 -3 c347 -3
375 -4 412 -23 49 -24 104 -78 173 -169 43 -57 52 -76 52 -110 l0 -41 -37 45
c-63 76 -114 122 -167 146 -47 22 -64 24 -208 24 l-158 0 0 -25 0 -25 150 0
c107 0 160 -4 184 -14 48 -20 109 -78 177 -168 51 -67 59 -83 59 -120 l-1 -43
-22 30 c-47 65 -129 142 -174 165 -28 14 -72 26 -105 28 -57 4 -58 4 -58 -22
0 -23 4 -26 33 -26 90 0 155 -43 254 -168 68 -85 74 -96 71 -133 l-3 -41 -51
64 c-28 35 -77 81 -109 103 l-57 40 -125 3 -125 4 4 -24 c3 -22 7 -23 113 -28
126 -6 151 -17 227 -97 88 -95 128 -159 128 -203 l0 -41 -49 59 c-104 125
-171 162 -293 162 -65 0 -68 -1 -68 -24 0 -22 4 -24 80 -28 106 -6 151 -34
252 -158 71 -87 77 -99 77 -140 l0 -45 -31 40 c-58 73 -129 137 -177 158 -36
16 -68 20 -151 21 l-105 1 0 -25 c0 -25 1 -25 110 -30 129 -6 147 -14 225 -96
95 -100 130 -156 130 -204 l0 -42 -38 49 c-50 62 -121 127 -163 148 -18 10
-61 20 -96 23 -63 5 -63 5 -63 -22 0 -24 3 -26 43 -26 86 -1 152 -47 252 -176
57 -74 65 -90 65 -127 l-1 -42 -27 35 c-90 116 -166 171 -259 185 -43 7 -43 7
-43 -24 0 -29 3 -31 35 -31 52 0 102 -30 165 -96 95 -100 130 -156 130 -204
l0 -42 -38 49 c-55 69 -127 131 -175 154 -39 17 -71 19 -477 19 l-435 0 -85
51 c-104 61 -112 69 -77 69 23 0 27 4 27 30 l0 30 -63 0 -63 0 -59 60 -59 60
107 0 107 0 0 25 0 25 -133 0 -133 0 -29 30 c-16 16 -46 42 -68 57 l-40 28
149 5 149 5 0 25 0 25 -184 3 c-115 1 -187 -1 -191 -8 -4 -6 -25 -3 -58 7
l-52 17 0 1738 0 1739 813 -3 c809 -3 812 -3 852 -24z m2155 -1071 l0 -1098
-61 -37 -60 -38 -240 0 -239 0 0 -30 0 -30 206 0 205 0 -53 -60 -53 -60 -72 0
c-71 0 -73 -1 -73 -25 0 -24 3 -25 55 -25 l55 0 -30 -57 -31 -58 -627 -5 -627
-5 -45 -23 c-52 -27 -96 -67 -151 -135 l-39 -49 0 42 c0 35 9 54 50 110 60 81
129 146 175 166 24 10 74 14 160 14 l125 0 0 25 0 25 -132 0 c-119 0 -138 -3
-184 -24 -52 -24 -106 -71 -162 -141 l-32 -40 0 44 c0 38 8 53 65 127 36 46
87 98 113 116 42 29 56 33 137 38 88 5 90 6 90 30 0 25 -1 25 -85 24 -66 -1
-94 -6 -127 -22 -53 -28 -106 -73 -155 -135 l-38 -49 0 42 c0 33 8 54 37 94
65 89 126 148 178 172 49 23 57 24 338 24 l287 0 0 25 0 25 -297 0 c-292 0
-299 -1 -348 -24 -52 -24 -109 -73 -163 -141 l-32 -40 0 41 c0 32 9 53 45 102
103 141 153 175 275 182 83 5 85 6 85 30 0 25 -1 25 -86 24 -119 -2 -176 -33
-269 -145 l-50 -60 0 42 c0 36 8 53 56 115 104 136 164 173 282 174 71 0 72 0
72 26 l0 26 -93 -4 c-78 -3 -100 -8 -138 -30 -42 -24 -108 -87 -158 -148 l-20
-25 -1 41 c0 45 40 108 128 198 61 62 108 86 172 86 49 0 50 0 50 31 l0 31
-57 -7 c-104 -13 -160 -46 -243 -146 l-50 -60 0 41 c0 35 9 54 55 115 114 150
159 174 333 175 l122 0 0 25 0 25 -123 0 c-172 0 -200 -11 -304 -116 l-83 -83
0 38 c0 30 10 51 49 102 59 79 131 146 176 165 19 8 55 14 80 14 41 0 45 2 45
25 0 24 -3 25 -57 25 -35 0 -75 -8 -100 -19 -42 -20 -119 -89 -166 -151 l-27
-35 0 45 c0 41 7 53 73 135 44 54 91 101 121 120 49 30 51 30 213 33 l163 4 0
24 0 24 -153 0 c-206 0 -227 -7 -334 -117 l-83 -84 0 39 c0 31 10 52 49 103
59 79 131 146 176 165 19 8 55 14 80 14 41 0 45 2 45 25 0 24 -3 25 -55 25
-35 0 -71 -8 -100 -21 -47 -22 -122 -89 -168 -149 l-27 -35 0 45 c1 40 7 54
68 130 75 93 130 137 189 151 21 5 370 9 776 9 l737 0 0 25 0 25 -767 -2 -768
-3 -45 -23 c-52 -27 -96 -67 -151 -135 l-39 -49 0 42 c0 35 9 54 50 110 60 81
129 146 175 166 24 10 74 14 160 14 l125 0 0 25 0 25 -132 0 c-119 0 -138 -3
-184 -24 -52 -24 -106 -71 -162 -141 l-32 -40 0 44 c0 38 8 53 65 127 87 111
140 147 222 152 63 4 63 5 63 35 l0 30 -60 -6 c-96 -10 -171 -58 -252 -160
l-38 -49 0 42 c0 46 33 100 120 194 68 74 123 96 243 96 97 0 97 0 97 25 l0
25 -107 0 c-93 0 -115 -4 -158 -24 -52 -24 -109 -73 -163 -141 l-32 -40 0 64
c0 61 2 67 50 131 79 107 148 165 215 181 17 4 387 7 823 8 l792 1 0 -1097z
m160 28 l0 -1068 -29 -6 c-16 -3 -40 -9 -55 -13 l-26 -6 0 1074 c0 591 3 1078
7 1081 3 4 28 7 55 7 l48 0 0 -1069z m168 -23 l2 -1088 -55 0 -55 0 0 1091 0
1090 53 -3 52 -3 3 -1087z m162 -143 c0 -1170 -1 -1235 -17 -1235 -10 0 -35 3
-55 6 l-38 7 0 63 c0 53 5 70 30 107 42 62 37 107 -12 107 -17 0 -18 47 -18
1090 l0 1090 55 0 55 0 0 -1235z m160 397 c0 -828 0 -838 -21 -877 -23 -46
-21 -120 6 -161 13 -20 15 -70 15 -314 l0 -291 -52 3 -53 3 -3 1225 c-1 674 0
1231 3 1238 3 7 24 12 55 12 l50 0 0 -838z m625 -852 c510 -420 560 -459 575
-445 16 14 17 7 23 -97 10 -163 8 -402 -3 -563 -12 -170 -39 -387 -49 -398 -6
-6 -530 560 -539 583 -1 4 29 26 67 50 161 96 207 168 198 301 -4 63 -12 92
-47 165 -24 49 -48 116 -54 148 -14 69 -38 93 -62 62 -9 -14 -14 -46 -14 -101
0 -158 -40 -232 -144 -264 -34 -11 -79 -26 -99 -35 l-37 -15 0 103 c0 175 -40
253 -163 317 l-64 33 20 47 c42 98 -14 175 -120 167 l-53 -5 0 204 c0 112 2
203 4 203 2 0 255 -207 561 -460z m-461 0 c47 -18 41 -76 -15 -149 -11 -13
-19 -27 -19 -31 0 -4 21 -13 46 -20 64 -18 146 -75 177 -123 33 -51 41 -106
33 -229 -3 -54 -3 -110 0 -123 7 -27 18 -25 73 12 19 13 66 33 105 45 39 11
86 29 104 40 41 25 78 87 93 158 l12 55 34 -71 c36 -76 50 -150 39 -209 -11
-54 -81 -124 -200 -197 -55 -34 -126 -85 -156 -113 -98 -92 -173 -147 -250
-184 -71 -34 -81 -36 -175 -36 -148 1 -265 40 -411 140 -84 58 -128 70 -249
69 -78 -1 -113 -6 -158 -23 -132 -52 -197 -139 -197 -266 0 -143 56 -237 172
-291 60 -28 70 -29 193 -28 137 1 184 10 344 69 126 46 332 95 423 102 101 7
144 -5 224 -62 48 -34 197 -176 191 -182 -2 -1 -47 -7 -100 -13 -96 -11 -97
-11 -130 14 -76 58 -166 71 -255 38 -26 -10 -97 -50 -157 -89 -156 -100 -209
-128 -300 -159 -71 -25 -95 -28 -210 -29 -118 0 -136 2 -192 26 -164 69 -235
200 -273 504 -15 122 -15 251 0 316 43 188 208 388 401 489 81 42 122 49 153
25 14 -11 46 -15 108 -15 48 0 88 -3 88 -7 -2 -29 -33 -43 -124 -57 -141 -21
-207 -73 -208 -166 -1 -88 48 -113 151 -78 74 25 132 27 341 15 175 -11 188
-5 247 108 38 73 61 102 101 124 13 7 12 19 -2 91 -22 107 -52 166 -138 268
-39 46 -74 98 -79 117 -24 85 61 157 145 125z m-74 -315 l25 -30 -27 24 c-16
14 -28 29 -28 34 0 6 1 8 3 6 1 -2 13 -17 27 -34z m61 -158 c47 -59 49 -84 8
-123 -17 -16 -46 -58 -64 -94 l-34 -65 -1 189 0 189 26 -24 c15 -13 44 -46 65
-72z m-471 -237 c0 -50 -3 -60 -17 -60 -10 0 -35 -3 -55 -6 l-38 -7 0 61 c0
66 1 67 78 71 l32 1 0 -60z m-170 -36 l0 -65 -27 3 c-40 4 -44 54 -8 97 15 17
29 31 31 31 2 0 4 -30 4 -66z m1301 -454 c122 -135 244 -269 271 -299 47 -52
49 -53 68 -36 25 23 25 19 -5 -123 -44 -201 -146 -533 -164 -532 -3 1 -28 30
-55 67 -37 51 -51 80 -62 132 -17 83 -68 185 -136 276 -78 103 -234 257 -308
304 -46 30 -83 65 -128 123 l-63 81 63 35 c75 41 119 74 212 159 38 35 73 62
77 61 5 -2 108 -113 230 -248z m-1876 201 c-3 -10 -9 -39 -13 -62 l-8 -44
-247 -3 -247 -2 0 -25 0 -25 244 0 243 0 7 -46 c10 -77 12 -74 -54 -74 -57 0
-60 -1 -60 -25 0 -24 3 -25 60 -25 67 0 65 2 75 -77 l6 -53 -286 0 -285 0 0
-25 0 -25 290 0 289 0 11 -42 c6 -24 13 -51 16 -60 5 -17 -29 -18 -619 -18
-553 0 -629 -2 -673 -16 -38 -13 -68 -36 -131 -100 l-83 -83 0 38 c0 30 10 51
49 102 59 79 131 146 176 165 27 11 96 14 325 14 l290 0 0 25 0 25 -302 0
c-275 0 -307 -2 -345 -19 -42 -20 -119 -89 -166 -151 l-27 -35 0 45 c0 41 7
53 73 135 44 54 91 101 121 120 45 27 58 30 158 34 106 3 108 4 108 27 0 24
-1 24 -98 24 -145 0 -179 -14 -279 -117 l-83 -84 0 39 c0 31 10 52 49 103 59
79 131 146 176 165 27 11 93 14 300 14 l265 0 0 25 0 25 -275 0 c-259 0 -278
-1 -320 -21 -47 -22 -122 -89 -168 -149 l-27 -35 0 45 c1 40 7 54 68 130 72
90 130 137 184 150 18 4 300 8 626 9 578 1 593 1 587 -18z m538 -17 l37 -7 0
-247 0 -248 -22 -6 c-13 -3 -38 -6 -55 -6 l-33 0 0 260 c0 290 -7 267 73 254z
m-123 -254 l0 -250 -24 0 c-42 0 -86 21 -86 41 0 14 -7 19 -30 19 -17 0 -39 9
-51 21 -20 20 -49 78 -49 99 0 6 27 10 65 10 63 0 65 1 65 25 0 24 -2 25 -70
25 l-70 0 0 34 c0 19 4 46 10 60 9 24 14 26 70 26 57 0 60 1 60 25 0 23 -4 25
-42 25 l-43 1 35 30 c19 16 55 36 80 44 87 27 80 47 80 -235z m330 -27 l0
-182 -52 -16 c-28 -8 -53 -15 -55 -15 -2 0 -3 106 -3 236 l0 235 55 -38 55
-38 0 -182z m118 122 l43 -17 -3 -116 -3 -115 -52 -18 -53 -18 0 156 c0 120 3
154 13 150 6 -3 31 -13 55 -22z m185 -51 c14 -5 17 -17 17 -79 l0 -74 -37 -10
c-74 -21 -73 -22 -73 85 l0 96 38 -6 c20 -4 45 -9 55 -12z m217 -26 c13 -18
34 -47 46 -63 l23 -30 -62 -2 c-34 -1 -81 -6 -104 -11 l-43 -10 0 69 0 68 53
4 c28 2 55 4 58 5 3 1 16 -13 29 -30z m83 -405 c85 -44 107 -77 107 -164 0
-116 -61 -274 -127 -328 -21 -17 -40 -27 -44 -23 -4 4 -42 66 -83 139 l-76
132 0 106 0 106 53 24 c61 29 125 32 170 8z m-1249 -80 l35 -58 -322 -5 -322
-5 -3 -27 -3 -28 359 0 359 0 44 -24 c24 -14 71 -32 103 -40 32 -9 61 -17 63
-20 2 -2 2 -46 1 -98 l-3 -95 -92 19 c-51 10 -138 33 -195 51 -95 30 -103 35
-106 60 -3 27 -4 27 -75 27 -40 0 -126 12 -192 26 -166 35 -489 46 -580 19
-32 -9 -68 -23 -79 -31 -11 -8 -44 -14 -73 -14 -50 0 -53 -1 -53 -25 0 -21 5
-25 30 -25 26 0 29 -3 22 -17 -6 -10 -13 -37 -17 -60 -7 -42 -8 -43 -46 -43
-37 0 -39 -2 -39 -30 0 -28 2 -30 40 -30 l40 0 0 -60 c0 -53 -2 -60 -20 -60
-15 0 -20 -7 -20 -24 0 -19 6 -25 26 -28 21 -2 30 -13 45 -53 10 -27 19 -53
19 -56 0 -4 -62 -9 -137 -11 -118 -3 -144 -7 -180 -26 -54 -28 -106 -74 -155
-135 l-38 -49 0 42 c0 33 8 54 37 94 100 137 183 196 276 196 43 0 47 2 47 25
0 24 -3 25 -57 25 -96 0 -179 -51 -271 -165 l-32 -40 0 41 c0 32 9 53 45 102
89 122 168 182 240 182 32 0 35 2 35 31 l0 30 -47 -7 c-84 -12 -146 -52 -223
-145 l-50 -60 0 42 c0 36 8 53 56 115 99 130 166 173 267 174 55 0 57 1 57 26
l0 27 -79 -5 c-61 -4 -88 -10 -123 -31 -41 -24 -107 -86 -157 -147 l-20 -25
-1 41 c0 45 40 108 128 198 84 86 83 86 392 86 l271 0 -3 28 -3 27 -265 0
c-192 0 -275 -4 -302 -13 -54 -19 -110 -63 -167 -132 l-51 -61 0 41 c0 71 131
229 224 271 38 17 80 19 673 19 l631 0 36 -57z m1662 -25 c98 -132 138 -257
114 -349 -18 -68 -153 -335 -221 -437 -71 -107 -181 -215 -264 -259 -234 -124
-595 -120 -1260 12 -373 74 -693 160 -818 220 -40 19 -101 39 -136 44 -35 6
-65 12 -66 13 -1 2 -15 41 -31 88 -26 76 -29 99 -29 210 0 151 12 181 90 220
44 21 66 25 180 28 244 7 405 -18 679 -109 205 -67 351 -102 521 -123 167 -21
411 -36 598 -36 136 0 163 3 196 19 115 59 198 246 189 426 l-3 74 40 6 c177
23 168 25 221 -47z m-696 -199 l0 -230 -52 3 -53 3 -3 191 -2 191 52 36 c29
20 54 36 56 36 1 1 2 -103 2 -230z m-4424 107 c83 -26 160 -85 325 -247 139
-138 169 -162 288 -234 205 -123 242 -163 447 -472 238 -359 319 -441 536
-543 187 -87 360 -120 638 -120 327 0 395 21 485 148 68 98 90 121 131 138
124 52 232 -31 279 -213 65 -247 -97 -539 -385 -692 -209 -111 -523 -163 -855
-140 -464 31 -801 170 -1067 441 -99 101 -173 197 -299 394 -101 157 -125 203
-212 400 -58 132 -105 203 -192 290 -195 194 -515 297 -999 320 l-148 7 7 51
c4 28 12 107 19 175 l12 124 42 37 c52 46 136 75 301 101 69 12 171 29 226 40
123 23 341 20 421 -5z m4264 -151 l0 -175 -55 0 -55 0 0 148 0 148 53 26 c28
15 53 27 55 27 1 1 2 -78 2 -174z m-160 -35 l0 -130 -55 0 -55 0 0 119 0 119
38 10 c76 20 72 27 72 -118z m-170 -11 l0 -110 -47 7 c-27 3 -51 8 -55 11 -5
2 -8 49 -8 104 l0 99 55 0 55 0 0 -111z m604 -49 c25 -43 46 -82 46 -85 0 -3
-22 -5 -50 -5 l-50 0 0 85 c0 47 2 85 4 85 2 0 25 -36 50 -80z m799 -91 c42
-55 45 -63 35 -91 -22 -63 -270 -549 -357 -702 -177 -307 -362 -565 -466 -650
-25 -21 -74 -52 -108 -68 -75 -36 -150 -96 -322 -258 -162 -152 -288 -250
-323 -250 -6 0 -20 41 -32 91 -12 50 -28 102 -36 115 -16 23 -61 44 -98 44
-19 0 -30 33 -125 378 -57 207 -106 385 -109 395 -4 16 18 17 403 15 l407 -3
97 -241 c53 -133 98 -243 101 -245 3 -1 15 0 27 3 21 6 19 13 -72 242 -52 130
-95 238 -95 241 0 3 50 5 110 5 l110 0 0 115 0 114 38 7 c135 23 243 66 333
134 30 22 56 40 59 40 3 0 24 -34 48 -75 38 -67 45 -74 62 -65 11 6 20 15 20
20 0 4 -20 43 -45 85 l-46 77 55 71 c68 90 133 205 216 380 36 75 66 137 67
137 0 0 21 -27 46 -61z m-3738 -208 c57 -26 97 -62 170 -156 57 -73 65 -88 65
-126 l0 -44 -27 35 c-59 75 -115 128 -165 156 l-53 29 -336 3 -336 3 -64 60
-64 59 385 0 c351 0 389 -2 425 -19z m-2618 -45 c-20 -51 -30 -112 -31 -183
-1 -73 2 -85 22 -105 21 -21 33 -23 147 -27 l125 -3 0 -137 0 -137 -122 3
c-170 5 -238 23 -299 82 -58 57 -73 105 -66 213 6 96 43 180 111 256 41 44 53
52 83 52 26 0 34 -4 30 -14z m201 4 l62 0 0 -135 0 -135 -97 0 c-146 0 -143
-1 -143 84 0 66 18 158 35 186 5 8 21 10 44 6 20 -3 64 -6 99 -6z m215 -20
c16 0 17 -21 17 -305 l0 -305 433 0 c441 0 457 -1 457 -37 0 -10 -96 -13 -500
-13 l-500 0 0 336 0 337 38 -7 c20 -3 45 -6 55 -6z m127 -21 l50 -11 0 -244 0
-244 340 0 c187 0 340 -2 340 -4 0 -2 3 -11 6 -20 6 -14 -33 -16 -395 -16
l-401 0 0 275 c0 151 2 275 5 275 2 0 27 -5 55 -11z m171 -41 l39 -11 0 -174
0 -173 228 0 c230 0 252 -3 252 -37 0 -11 -56 -13 -292 -11 l-293 3 -3 208
c-3 231 -7 218 69 195z m159 -63 l50 -25 0 -90 0 -90 113 0 c107 0 137 -7 137
-32 0 -4 -81 -8 -180 -8 l-180 0 0 135 c0 74 2 135 5 135 3 0 28 -11 55 -25z
m1793 -15 c27 -19 80 -76 119 -126 55 -73 69 -98 66 -121 -5 -48 -42 -43 -102
15 -96 94 -103 96 -399 100 l-258 4 -48 71 c-26 40 -51 78 -55 85 -6 10 53 12
311 10 l318 -3 48 -35z m652 -1 c-24 -22 -58 -63 -75 -90 -27 -40 -37 -49 -61
-49 -44 0 -107 -35 -165 -92 -64 -62 -97 -64 -102 -5 -3 33 4 47 63 122 58 75
121 131 165 148 8 3 61 6 117 6 l103 1 -45 -41z m343 -18 c15 -10 46 -24 70
-31 23 -7 42 -16 42 -19 0 -3 -7 -28 -15 -55 -32 -105 -7 -226 69 -336 43 -62
44 -65 25 -72 -12 -5 -34 -17 -49 -28 -37 -26 -65 -25 -179 5 -362 97 -478
308 -278 504 92 90 92 90 198 69 50 -10 103 -26 117 -37z m-2613 -75 l40 -35
-57 -1 -58 0 0 45 c0 53 6 52 75 -9z m2865 -15 l65 -19 -82 -1 c-46 -1 -83 1
-83 3 0 15 14 36 24 36 6 0 40 -9 76 -19z m-1275 -101 c22 -11 58 -38 80 -60
41 -42 36 -54 -8 -20 -69 55 -96 60 -334 60 -212 0 -223 1 -233 20 -11 20 -8
20 221 20 212 0 236 -2 274 -20z m558 1 c-3 -12 -17 -22 -33 -26 -16 -3 -54
-22 -86 -41 -31 -19 -59 -33 -61 -31 -7 7 88 89 120 102 47 21 66 19 60 -4z
m1117 0 l75 -19 -297 -1 c-292 -1 -298 -1 -298 19 0 19 7 20 223 20 182 -1
236 -4 297 -19z m-1709 -82 c21 -7 53 -25 71 -40 l33 -29 -44 15 c-33 11 -93
15 -239 15 -168 0 -198 2 -214 17 -10 9 -18 20 -18 25 0 13 367 10 411 -3z
m599 -20 c0 -14 -7 -19 -29 -19 -16 0 -48 -7 -72 -15 l-44 -15 33 29 c32 28
89 52 105 44 4 -2 7 -13 7 -24z m1625 6 l110 -20 -559 -3 c-441 -2 -561 0
-568 10 -24 39 -25 39 450 36 400 -3 471 -6 567 -23z m-1841 -53 c47 -32 78
-88 84 -152 l4 -47 -48 -19 c-68 -26 -220 -26 -288 0 l-49 19 6 53 c16 152
170 229 291 146z m2296 -27 l0 -35 -708 0 c-706 0 -732 1 -732 32 0 4 299 8
665 8 584 0 665 2 665 15 0 12 13 15 55 15 l55 0 0 -35z m160 -50 l0 -85 -750
2 -749 3 -23 23 -22 22 717 0 717 0 0 60 0 60 55 0 55 0 0 -85z m-2810 46 c14
-4 25 -13 25 -20 0 -11 -37 -13 -185 -12 -174 2 -210 8 -210 32 0 10 333 10
370 0z m618 -11 c12 -19 10 -20 -53 -21 -36 -1 -71 -2 -77 -3 -24 -2 -13 28
12 35 53 15 105 10 118 -11z m-613 -82 c4 -4 5 -14 2 -23 -10 -23 -262 -22
-289 2 -10 9 -18 20 -18 25 0 11 295 7 305 -4z m710 -13 l30 -25 -125 3 c-107
2 -125 4 -128 19 -4 21 14 25 113 27 71 1 83 -2 110 -24z m-2453 -157 c7 -129
47 -188 126 -188 37 0 71 -37 110 -122 17 -38 43 -84 58 -103 l27 -36 26 24
c63 59 113 59 137 1 18 -42 11 -84 -17 -110 -20 -18 -22 -18 -62 4 -49 26
-259 192 -366 290 -116 105 -105 103 -137 19 -15 -39 -38 -87 -52 -105 l-24
-33 20 -22 c24 -26 47 -93 57 -162 l7 -50 -31 46 c-17 26 -93 105 -169 177
-164 155 -190 196 -203 316 -5 44 -12 93 -15 109 l-6 27 255 0 254 0 5 -82z
m328 76 c0 -4 -9 -38 -20 -75 -11 -38 -29 -100 -40 -138 l-20 -69 -29 28 c-16
16 -40 31 -55 34 -14 4 -37 8 -51 11 -38 8 -55 44 -62 134 l-6 81 142 0 c77 0
141 -3 141 -6z m144 -31 c23 -49 194 -318 258 -406 l49 -68 -31 -157 c-17 -86
-34 -167 -37 -178 -3 -17 1 -22 21 -26 30 -6 26 -16 62 164 l27 138 106 -103
c120 -116 233 -195 384 -269 56 -28 104 -52 105 -54 3 -2 -48 -416 -52 -421
-1 -1 -96 20 -211 47 -116 26 -262 57 -325 69 -63 12 -123 24 -132 27 -14 4
-11 17 24 101 22 52 42 119 45 148 5 47 3 56 -20 78 -13 14 -42 30 -63 36 -22
5 -58 15 -81 20 -28 8 -65 33 -118 81 -87 79 -136 100 -183 81 -31 -13 -38
-23 -75 -116 -43 -107 -81 -200 -84 -204 -7 -9 -120 52 -213 114 -52 35 -138
103 -190 151 -52 48 -125 111 -161 141 l-67 54 36 89 35 89 61 -52 c105 -90
193 -184 215 -231 13 -25 26 -73 31 -107 10 -73 33 -97 59 -65 33 40 19 264
-24 369 l-23 59 26 59 27 59 113 -96 c61 -52 112 -101 112 -108 0 -6 -27 -107
-60 -224 -33 -117 -60 -217 -60 -221 0 -5 11 -11 24 -13 23 -5 25 2 81 201 32
113 60 212 62 218 3 8 25 -3 61 -31 119 -91 151 -102 208 -67 97 59 49 251
-62 251 -22 0 -54 -9 -73 -21 -18 -11 -34 -19 -36 -17 -1 2 -12 21 -22 43
l-20 40 48 170 c27 94 51 176 54 183 2 6 19 12 38 12 29 0 36 -5 51 -37z
m1295 13 c80 -75 362 -75 442 0 25 24 28 24 210 24 158 0 194 -3 243 -20 31
-10 83 -24 116 -31 l60 -12 -18 -29 c-40 -70 -90 -115 -149 -134 -83 -27 -516
-28 -641 -1 -171 38 -378 125 -462 197 l-35 29 104 1 c97 0 107 -2 130 -24z
m1798 -351 c56 -203 105 -382 108 -397 6 -26 4 -28 -63 -47 -38 -12 -124 -35
-190 -51 -159 -39 -227 -66 -253 -98 -20 -26 -21 -34 -14 -147 4 -66 8 -133 9
-150 l1 -30 -165 -1 c-91 0 -181 -4 -200 -8 -71 -15 -168 -50 -272 -97 -176
-80 -225 -91 -445 -96 -117 -3 -231 -1 -295 7 -108 12 -357 55 -365 63 -3 4
46 408 51 414 1 1 37 -9 79 -22 97 -31 276 -64 387 -71 47 -3 99 -7 116 -10
l32 -4 7 -175 7 -175 26 0 25 0 -6 173 -7 173 163 12 c210 16 365 48 510 107
16 7 17 -2 17 -103 0 -144 6 -172 36 -172 l23 0 -6 153 -6 152 44 24 c118 65
246 190 312 302 53 91 88 207 88 295 0 122 -36 239 -98 322 l-24 33 133 -3
133 -3 102 -370z m-3112 -476 c66 -62 122 -93 193 -104 48 -8 71 -33 64 -70
-6 -35 -17 -41 -112 -64 -103 -26 -140 -57 -140 -121 0 -22 -5 -40 -10 -40 -6
0 -22 -11 -35 -25 -32 -31 -32 -69 0 -150 l26 -64 -20 -40 c-12 -22 -53 -91
-92 -153 -72 -114 -159 -280 -159 -305 0 -7 -5 -13 -10 -13 -10 0 -142 31
-147 35 -1 0 8 33 22 72 13 39 36 127 51 195 32 148 52 190 137 288 103 121
117 162 93 278 -24 113 -36 242 -26 291 16 88 63 85 165 -10z m3352 -11 c6 -7
13 -25 17 -40 5 -23 1 -31 -31 -55 -35 -26 -84 -74 -153 -148 -60 -64 -48
-105 68 -246 86 -105 147 -195 172 -255 11 -25 29 -97 40 -159 11 -63 25 -126
30 -141 13 -34 8 -38 -59 -58 -75 -22 -78 -21 -102 27 -12 23 -56 78 -98 122
-98 102 -110 138 -121 355 -10 222 -36 264 -157 259 -44 -2 -56 2 -90 29 -53
42 -109 105 -118 131 -7 24 6 45 39 64 12 6 118 37 236 68 215 57 309 70 327
47z m-3552 -237 l6 -33 -33 23 c-18 12 -35 24 -37 25 -2 2 7 29 20 61 l24 58
7 -50 c4 -27 10 -65 13 -84z m3604 58 c1 -13 -12 -18 -55 -24 -31 -4 -58 -5
-60 -2 -2 2 19 20 48 41 47 32 53 34 60 19 3 -10 7 -25 7 -34z m-3179 -93 c0
-3 -12 -32 -26 -66 l-27 -61 -46 6 c-25 4 -52 8 -58 10 -17 6 -17 46 0 69 16
21 157 59 157 42z m2628 -93 c2 -1 -15 -11 -38 -23 -23 -12 -44 -19 -47 -16
-3 2 -7 33 -10 68 l-5 63 48 -45 c27 -25 50 -46 52 -47z m176 -42 c22 -24 36
-113 36 -229 0 -90 22 -199 51 -253 6 -13 47 -61 90 -107 91 -96 116 -154 103
-239 -26 -183 -132 -243 -609 -343 -192 -40 -404 -91 -604 -145 -151 -41 -510
-58 -701 -34 -47 5 -146 25 -220 44 -250 63 -387 79 -785 95 -158 6 -273 15
-313 25 -199 48 -307 164 -319 341 -8 119 10 160 211 489 75 123 76 125 35
231 -29 77 -20 94 50 94 58 0 319 -51 696 -135 468 -104 507 -110 810 -110
304 0 323 3 534 97 203 89 248 99 443 97 176 -2 170 -3 323 65 90 40 143 46
169 17z"/>
<path d="M5725 10743 c-61 -5 -86 -13 -80 -23 4 -7 -97 -264 -110 -278 -6 -6
-168 231 -168 245 0 13 -14 14 -86 8 -96 -8 -115 -17 -74 -34 19 -8 67 -66
149 -184 l121 -172 12 -110 c9 -77 9 -111 2 -113 -6 -2 -11 -8 -11 -14 0 -9
20 -8 149 9 39 5 42 7 27 19 -14 10 -20 37 -28 121 l-11 108 82 190 c56 130
91 197 109 212 l27 22 -35 -1 c-19 -1 -53 -3 -75 -5z"/>
<path d="M4715 10567 c-154 -43 -281 -80 -283 -82 -2 -1 7 -38 19 -80 19 -66
24 -75 35 -60 11 15 190 72 199 63 2 -2 33 -107 69 -233 41 -145 61 -234 55
-239 -21 -22 -4 -22 81 2 50 14 90 29 90 34 0 4 -6 8 -13 8 -9 0 -35 77 -77
228 -34 125 -63 231 -64 236 -1 12 193 65 200 55 3 -5 9 -9 14 -9 9 0 -27 140
-39 151 -3 3 -132 -30 -286 -74z"/>
<path d="M7043 10600 c-110 -23 -195 -89 -241 -189 -21 -45 -26 -71 -26 -131
0 -165 108 -292 273 -321 151 -27 319 78 361 227 19 64 9 180 -20 238 -63 124
-216 202 -347 176z m150 -163 c53 -29 89 -94 89 -155 0 -168 -195 -251 -313
-133 -155 154 33 395 224 288z"/>
<path d="M6211 10506 c-69 -38 -67 -162 4 -194 49 -23 94 -15 131 22 28 28 34
42 34 76 0 34 -6 48 -34 76 -27 27 -42 34 -72 34 -22 -1 -50 -7 -63 -14z"/>
<path d="M7770 10402 c0 -4 4 -12 9 -17 14 -14 -238 -547 -261 -553 -10 -2
-18 -7 -18 -11 0 -5 112 -60 163 -80 6 -2 7 4 3 14 -7 20 70 195 86 195 5 0
32 -12 60 -26 28 -14 84 -41 125 -59 l73 -34 31 61 c17 33 29 62 27 63 -2 2
-61 31 -131 64 -70 33 -127 62 -127 65 0 7 49 119 54 124 2 1 69 -28 149 -66
98 -47 146 -76 149 -88 3 -13 16 4 41 56 20 41 34 77 29 81 -6 6 -281 137
-409 195 -29 13 -53 20 -53 16z"/>
<path d="M4195 10389 c-11 -5 -47 -21 -80 -35 -48 -21 -56 -28 -41 -33 27 -10
257 -550 243 -569 -19 -25 0 -21 87 16 69 29 83 38 68 45 -28 13 -256 555
-241 573 14 17 -4 18 -36 3z"/>
<path d="M3750 10166 c-127 -47 -234 -126 -272 -200 -30 -58 -28 -135 3 -181
59 -87 182 -99 325 -31 189 89 212 -19 25 -118 -68 -36 -70 -36 -99 -19 -57
33 -124 -18 -108 -81 13 -51 49 -76 109 -76 43 0 71 9 143 44 110 54 170 105
200 170 30 64 30 119 1 170 -54 95 -180 112 -320 42 -108 -53 -189 -47 -157
13 15 29 77 79 132 107 45 23 56 25 83 15 49 -17 82 -14 99 11 45 63 -6 149
-86 147 -24 0 -59 -6 -78 -13z"/>
<path d="M3078 9711 c-59 -23 -85 -42 -235 -167 l-122 -102 196 -233 c108
-128 199 -244 202 -257 7 -24 8 -24 74 32 62 53 85 82 54 70 -12 -4 -157 156
-157 175 0 5 16 21 36 36 l36 28 170 -24 170 -23 24 27 c30 35 30 62 1 91 -18
18 -43 25 -130 36 -59 8 -107 15 -107 16 0 1 12 27 26 59 47 102 23 187 -66
233 -53 27 -108 28 -172 3z m117 -132 c20 -31 -21 -88 -128 -181 -67 -58 -69
-59 -89 -41 -11 10 -29 30 -39 44 l-19 27 76 62 c108 89 180 121 199 89z"/>
<path d="M8468 9710 c-87 -67 -42 -200 66 -200 79 0 131 71 106 146 -22 66
-118 97 -172 54z"/>
<path d="M9060 9417 c-91 -26 -173 -97 -214 -186 -31 -68 -29 -198 4 -266 34
-70 108 -139 175 -164 63 -24 169 -27 223 -8 l33 12 -50 56 c-48 53 -53 57
-105 61 -67 6 -120 42 -147 102 -78 171 115 335 272 231 42 -27 79 -96 79
-146 0 -29 9 -44 53 -87 29 -29 55 -52 59 -52 10 0 28 87 28 139 0 113 -78
234 -184 286 -63 31 -161 40 -226 22z"/>
<path d="M2352 9035 c-136 -163 -159 -195 -140 -195 31 0 481 -377 474 -396
-15 -39 27 4 173 179 l162 192 -58 52 c-60 54 -80 65 -69 37 4 -10 -29 -57
-98 -139 l-104 -124 -45 36 -45 37 61 73 c100 119 96 107 46 153 -24 21 -49
39 -55 40 -7 0 -44 -38 -83 -85 -40 -47 -75 -85 -79 -85 -4 1 -25 16 -47 35
l-39 34 40 48 c22 26 69 83 104 125 51 62 69 77 85 72 11 -3 -5 18 -40 50 -33
31 -64 55 -70 55 -5 0 -83 -87 -173 -194z"/>
<path d="M9835 8766 c-16 -23 -583 -179 -623 -171 l-33 6 50 -75 c53 -79 71
-97 71 -72 0 9 28 23 77 40 42 14 77 25 78 23 1 -1 34 -50 73 -108 40 -58 72
-110 72 -115 0 -5 -23 -35 -51 -66 -36 -42 -54 -55 -67 -51 -19 8 -15 0 57
-104 39 -58 52 -65 49 -30 -2 27 366 517 388 517 8 0 14 3 14 6 0 5 -141 214
-144 214 -1 0 -6 -6 -11 -14z m-66 -241 c-39 -52 -75 -95 -79 -95 -6 0 -80
102 -83 116 -2 6 194 69 226 73 4 1 -25 -42 -64 -94z"/>
<path d="M2021 8604 c-17 -32 -31 -61 -31 -66 0 -4 70 -107 156 -228 86 -122
154 -223 152 -225 -2 -3 -125 4 -272 15 -147 11 -272 18 -276 15 -5 -3 -22
-30 -38 -60 l-30 -54 42 -5 c91 -12 666 -47 675 -42 5 3 23 31 40 61 l31 54
-206 293 c-114 161 -208 294 -209 296 -2 2 -17 -23 -34 -54z"/>
<path d="M10228 8122 c-7 -25 -547 -256 -565 -241 -7 7 -13 8 -13 3 -1 -24
216 -514 227 -514 8 0 44 14 81 32 48 22 61 33 47 35 -15 3 -36 43 -90 169
-38 91 -70 170 -70 175 0 8 335 158 447 201 15 6 14 14 -14 83 -33 77 -42 88
-50 57z"/>
<path d="M1622 7830 c-5 -14 -21 -54 -36 -89 -26 -65 -27 -82 -4 -64 9 7 92
-21 290 -100 221 -88 278 -114 283 -131 4 -16 13 -2 40 63 41 98 41 101 17 94
-29 -7 -564 211 -573 233 -6 17 -8 17 -17 -6z"/>
<path d="M1447 7357 c-10 -36 -17 -73 -17 -81 0 -11 57 -28 216 -67 123 -29
211 -55 203 -59 -8 -4 -122 -49 -254 -100 -132 -52 -242 -95 -244 -97 -7 -4
-41 -157 -36 -161 3 -3 11 0 18 7 11 8 77 -4 288 -54 331 -80 309 -73 309 -91
0 -8 4 -14 8 -14 10 0 46 149 38 157 -3 3 -101 30 -218 58 -198 49 -211 53
-183 64 17 7 129 51 250 98 121 47 224 90 229 94 9 8 46 151 40 158 -2 2 -9
-1 -16 -7 -18 -14 -587 123 -603 145 -10 13 -15 4 -28 -50z"/>
<path d="M10513 7405 c-13 -22 -573 -186 -591 -172 -7 5 -14 8 -16 6 -6 -7 47
-179 55 -179 5 0 9 7 9 15 0 8 11 17 25 21 13 3 143 41 287 84 184 54 267 74
276 67 7 -5 14 -8 17 -6 4 5 -41 169 -49 176 -2 3 -8 -3 -13 -12z"/>
<path d="M10635 6954 c-14 -23 -591 -110 -611 -93 -10 8 -14 8 -14 1 0 -19 22
-167 26 -171 2 -2 9 3 17 11 13 12 194 44 203 35 2 -1 13 -66 24 -142 12 -77
23 -141 24 -142 1 -1 32 3 69 9 66 11 68 12 63 37 -20 104 -37 254 -30 261 5
4 37 11 70 15 l62 7 10 -61 c6 -33 17 -106 24 -162 10 -86 10 -102 -2 -110
-11 -7 5 -9 50 -4 99 10 111 14 105 39 -3 11 -19 118 -35 236 -17 118 -34 223
-38 233 -6 16 -8 16 -17 1z"/>
<path d="M1276 6534 c-3 -8 -6 -51 -6 -95 0 -74 1 -78 18 -68 14 9 64 9 189 2
138 -8 177 -13 209 -30 56 -28 84 -74 84 -136 0 -65 -28 -109 -86 -138 -44
-21 -53 -21 -222 -15 -135 6 -180 11 -188 22 -6 8 -14 14 -18 14 -3 0 -6 -43
-6 -96 0 -80 2 -95 14 -85 9 8 77 10 217 9 195 -3 206 -2 254 20 157 72 221
248 144 400 -35 70 -85 115 -162 144 -40 15 -95 22 -232 30 -136 7 -183 13
-191 24 -10 13 -12 12 -18 -2z"/>
<path d="M10308 6215 c-233 -88 -290 -385 -106 -550 127 -114 328 -108 446 15
60 60 85 120 90 209 7 133 -54 243 -169 306 -46 24 -67 29 -139 32 -56 2 -98
-2 -122 -12z m185 -139 c67 -28 107 -93 107 -172 0 -156 -181 -238 -302 -136
-131 110 -56 320 115 322 26 0 62 -6 80 -14z"/>
<path d="M1574 5526 c-70 -31 -87 -120 -35 -178 26 -29 35 -33 81 -33 46 0 55
4 81 33 51 56 32 149 -36 178 -42 17 -51 17 -91 0z"/>
<path d="M10042 5327 c-27 -105 -27 -114 -7 -97 13 11 35 9 121 -10 60 -13
108 -29 111 -37 3 -7 1 -30 -4 -50 -8 -36 -16 -42 -153 -118 -155 -87 -179
-110 -161 -158 12 -32 45 -51 75 -43 13 3 63 28 112 55 l89 50 10 -53 c36
-181 222 -221 326 -70 16 24 36 63 45 86 21 60 86 350 79 356 -3 3 -138 36
-301 73 -212 48 -299 72 -308 85 -11 15 -16 5 -34 -69z m449 -184 c35 -7 35
-12 9 -121 -23 -97 -52 -157 -82 -173 -51 -27 -63 66 -27 221 21 89 22 91 46
85 14 -3 38 -9 54 -12z"/>
<path d="M1960 4929 c-90 -31 -88 -30 -65 -39 16 -6 31 -41 65 -151 25 -79 45
-148 45 -153 0 -5 -24 -17 -52 -27 l-53 -18 -36 115 c-22 70 -41 114 -48 111
-6 -2 -35 -12 -63 -21 -29 -10 -53 -23 -53 -30 0 -7 16 -58 35 -115 24 -72 31
-103 22 -106 -100 -36 -97 -36 -107 -11 -5 14 -27 83 -50 156 -33 105 -39 134
-30 145 7 8 8 15 3 15 -15 0 -137 -42 -146 -50 -7 -6 132 -453 151 -484 3 -5
9 -1 12 10 11 28 565 211 586 193 8 -6 16 -10 18 -8 7 10 -156 489 -167 488
-7 0 -37 -9 -67 -20z"/>
<path d="M9822 4518 c-18 -40 -29 -75 -25 -79 5 -4 95 -46 201 -95 105 -48
190 -89 188 -91 -2 -2 -113 -24 -247 -48 -134 -25 -254 -47 -266 -50 -20 -5
-57 -69 -78 -135 -6 -19 -4 -21 13 -16 28 9 552 -231 562 -258 5 -16 13 -6 39
50 17 38 32 73 32 78 0 5 -90 51 -201 102 l-202 92 53 11 c30 6 142 26 249 46
107 19 205 38 217 40 21 5 57 60 83 130 8 21 6 23 -14 22 -13 -1 -143 52 -290
118 -199 90 -266 124 -266 138 0 34 -17 16 -48 -55z"/>
<path d="M2260 4262 c0 -14 -67 -56 -257 -163 -142 -79 -266 -143 -275 -142
-10 2 -18 1 -18 -2 0 -3 19 -39 42 -80 41 -73 58 -91 58 -60 0 13 77 63 167
109 l32 16 77 -136 c42 -74 73 -138 70 -142 -4 -3 -48 -29 -99 -58 -69 -39
-96 -49 -109 -42 -25 12 -23 5 19 -70 49 -91 56 -98 63 -77 3 9 121 82 260
161 188 106 261 142 278 139 26 -6 28 -12 -36 104 -30 54 -37 61 -43 44 -6
-18 -176 -123 -198 -123 -8 0 -148 240 -154 264 -4 16 186 117 210 111 19 -4
16 4 -25 80 -47 85 -62 101 -62 67z"/>
<path d="M9469 3830 c-91 -141 -91 -140 -67 -138 30 2 507 -307 517 -336 7
-18 14 -12 53 49 24 39 47 75 51 81 4 8 -1 11 -16 11 -32 -2 -515 312 -519
338 -3 18 -4 17 -19 -5z"/>
<path d="M9251 3501 c-64 -73 -69 -81 -47 -81 7 0 33 -29 56 -65 l42 -65 -35
-43 c-19 -23 -59 -69 -90 -102 l-55 -60 -71 34 c-42 21 -71 41 -71 50 -1 15
-130 -116 -130 -131 0 -4 10 -4 23 1 17 7 84 -18 312 -114 176 -74 289 -127
287 -135 -6 -26 24 0 104 90 61 70 78 96 66 98 -25 5 -327 529 -326 564 1 16
1 28 -1 28 -2 0 -30 -31 -64 -69z m182 -450 c31 -55 57 -102 57 -105 0 -5
-209 80 -217 87 -4 4 89 115 97 116 3 1 31 -44 63 -98z"/>
<path d="M2789 3434 c-3 -14 -74 -80 -187 -174 -153 -127 -185 -151 -196 -139
-90 101 -117 140 -111 160 6 18 4 19 -12 10 -10 -6 -40 -30 -68 -55 -47 -41
-49 -45 -34 -62 9 -11 94 -112 188 -226 95 -115 175 -208 178 -208 3 0 32 21
64 48 57 45 76 70 44 58 -10 -3 -36 20 -80 72 -36 42 -65 79 -64 82 0 3 83 74
185 158 151 125 189 152 206 146 19 -6 18 -2 -9 32 -17 22 -47 57 -66 79 -32
36 -35 38 -38 19z"/>
<path d="M3264 2596 c-43 -19 -64 -53 -64 -104 0 -70 69 -125 136 -108 15 4
39 20 55 36 52 51 36 140 -31 175 -35 18 -55 18 -96 1z"/>
<path d="M8633 2590 c-40 -24 -53 -48 -53 -100 0 -68 70 -122 136 -106 15 4
39 20 55 36 23 23 29 37 29 72 0 52 -21 85 -66 104 -44 19 -63 18 -101 -6z"/>
<path d="M6740 9325 c0 -14 3 -25 8 -25 4 0 228 -18 497 -40 270 -22 491 -40
491 -40 1 0 4 11 6 24 5 23 1 25 -41 30 -59 8 -903 76 -936 76 -20 0 -25 -5
-25 -25z"/>
<path d="M4200 8255 c0 -25 1 -25 80 -25 79 0 80 0 80 25 0 25 -1 25 -80 25
-79 0 -80 0 -80 -25z"/>
<path d="M4530 8255 l0 -25 105 0 105 0 0 25 0 25 -105 0 -105 0 0 -25z"/>
<path d="M4800 8255 l0 -25 135 0 135 0 0 25 0 25 -135 0 -135 0 0 -25z"/>
<path d="M5130 8255 l0 -25 135 0 135 0 0 25 0 25 -135 0 -135 0 0 -25z"/>
<path d="M4200 7820 l0 -290 290 0 290 0 0 290 0 290 -290 0 -290 0 0 -290z
m520 -5 l0 -235 -232 2 -233 3 -3 233 -2 232 235 0 235 0 0 -235z"/>
<path d="M4386 7833 c-91 -183 -97 -198 -80 -210 10 -7 21 -13 24 -13 3 0 24
36 45 80 l39 80 76 0 76 0 39 -80 c21 -44 41 -80 43 -80 2 0 12 5 23 10 18 10
12 23 -81 210 -55 110 -101 200 -103 200 -1 0 -46 -89 -101 -197z m127 42 c24
-50 22 -55 -23 -55 -22 0 -40 4 -40 10 0 14 33 80 40 80 3 0 14 -16 23 -35z"/>
<path d="M4860 8080 l0 -30 160 0 160 0 0 30 0 30 -160 0 -160 0 0 -30z"/>
<path d="M4860 7905 c0 -25 1 -25 80 -25 79 0 80 0 80 25 0 25 -1 25 -80 25
-79 0 -80 0 -80 -25z"/>
<path d="M5070 7905 l0 -25 135 0 135 0 0 25 0 25 -135 0 -135 0 0 -25z"/>
<path d="M4860 7735 l0 -25 160 0 160 0 0 25 0 25 -160 0 -160 0 0 -25z"/>
<path d="M4200 7385 c0 -25 1 -25 80 -25 79 0 80 0 80 25 0 25 -1 25 -80 25
-79 0 -80 0 -80 -25z"/>
<path d="M4520 7385 l0 -25 110 0 110 0 0 25 0 25 -110 0 -110 0 0 -25z"/>
<path d="M4800 7385 l0 -25 105 0 105 0 0 25 0 25 -105 0 -105 0 0 -25z"/>
<path d="M5180 7385 l0 -25 190 0 190 0 0 25 0 25 -190 0 -190 0 0 -25z"/>
<path d="M4200 7205 l0 -25 135 0 135 0 0 25 0 25 -135 0 -135 0 0 -25z"/>
<path d="M4520 7205 l0 -25 410 0 410 0 0 25 0 25 -410 0 -410 0 0 -25z"/>
<path d="M4200 7035 l0 -25 105 0 105 0 0 25 0 25 -105 0 -105 0 0 -25z"/>
<path d="M4470 7035 c0 -25 1 -25 80 -25 79 0 80 0 80 25 0 25 -1 25 -80 25
-79 0 -80 0 -80 -25z"/>
<path d="M4800 7035 l0 -25 190 0 190 0 0 25 0 25 -190 0 -190 0 0 -25z"/>
<path d="M5230 7035 l0 -25 135 0 135 0 0 25 0 25 -135 0 -135 0 0 -25z"/>
<path d="M4200 6860 c0 -29 1 -30 50 -30 49 0 50 1 50 30 0 29 -1 30 -50 30
-49 0 -50 -1 -50 -30z"/>
<path d="M4360 6860 l0 -30 80 0 80 0 0 30 0 30 -80 0 -80 0 0 -30z"/>
<path d="M4690 6860 c0 -30 2 -31 38 -28 32 3 37 6 37 28 0 22 -5 25 -37 28
-36 3 -38 2 -38 -28z"/>
<path d="M4827 6883 c-4 -3 -7 -17 -7 -30 0 -22 3 -23 80 -23 l80 0 0 30 0 30
-73 0 c-41 0 -77 -3 -80 -7z"/>
<path d="M5150 6860 c0 -25 4 -30 25 -30 21 0 25 5 25 30 0 25 -4 30 -25 30
-21 0 -25 -5 -25 -30z"/>
<path d="M5260 6860 l0 -31 108 3 c107 3 107 3 107 28 0 25 0 25 -107 28
l-108 3 0 -31z"/>
<path d="M4200 6510 l0 -30 160 0 160 0 0 30 0 30 -160 0 -160 0 0 -30z"/>
<path d="M4690 6510 l0 -30 215 0 215 0 0 30 0 30 -215 0 -215 0 0 -30z"/>
<path d="M5290 6510 l0 -31 133 3 132 3 0 25 0 25 -132 3 -133 3 0 -31z"/>
<path d="M4200 6335 c0 -23 3 -25 50 -25 47 0 50 2 50 25 0 23 -3 25 -50 25
-47 0 -50 -2 -50 -25z"/>
<path d="M4470 6335 l0 -25 190 0 190 0 0 25 0 25 -190 0 -190 0 0 -25z"/>
<path d="M5010 6335 l0 -25 165 0 165 0 0 25 0 25 -165 0 -165 0 0 -25z"/>
<path d="M4200 5985 l0 -25 135 0 135 0 0 25 0 25 -135 0 -135 0 0 -25z"/>
<path d="M4520 5985 l0 -25 245 0 245 0 0 25 0 25 -245 0 -245 0 0 -25z"/>
<path d="M5070 5985 l0 -25 215 0 215 0 0 25 0 25 -215 0 -215 0 0 -25z"/>
<path d="M4200 5815 l0 -25 295 0 295 0 0 25 0 25 -295 0 -295 0 0 -25z"/>
<path d="M4200 5635 l0 -25 270 0 270 0 0 25 0 25 -270 0 -270 0 0 -25z"/>
<path d="M4800 5635 l0 -25 215 0 215 0 0 25 0 25 -215 0 -215 0 0 -25z"/>
<path d="M4200 5465 l0 -25 135 0 135 0 0 25 0 25 -135 0 -135 0 0 -25z"/>
<path d="M4630 5465 l0 -25 465 0 465 0 0 25 0 25 -465 0 -465 0 0 -25z"/>
<path d="M4200 5285 c0 -23 3 -25 50 -25 47 0 50 2 50 25 0 23 -3 25 -50 25
-47 0 -50 -2 -50 -25z"/>
<path d="M4360 5285 l0 -25 135 0 135 0 0 25 0 25 -135 0 -135 0 0 -25z"/>
<path d="M4690 5285 c0 -25 1 -25 80 -25 79 0 80 0 80 25 0 25 -1 25 -80 25
-79 0 -80 0 -80 -25z"/>
<path d="M5010 5285 l0 -25 220 0 220 0 0 25 0 25 -220 0 -220 0 0 -25z"/>
<path d="M4200 5115 c0 -25 1 -25 80 -25 79 0 80 0 80 25 0 25 -1 25 -80 25
-79 0 -80 0 -80 -25z"/>
<path d="M4520 5115 l0 -25 220 0 220 0 0 25 0 25 -220 0 -220 0 0 -25z"/>
<path d="M5120 5115 l0 -25 135 0 135 0 0 25 0 25 -135 0 -135 0 0 -25z"/>
<path d="M4637 4963 c-4 -3 -7 -17 -7 -30 0 -23 0 -23 135 -23 l135 0 0 30 0
30 -128 0 c-71 0 -132 -3 -135 -7z"/>
<path d="M5070 4940 l0 -30 191 0 190 0 -3 28 -3 27 -187 3 -188 2 0 -30z"/>
<path d="M4850 4765 l0 -25 135 0 135 0 0 25 0 25 -135 0 -135 0 0 -25z"/>
<path d="M5180 4765 l0 -25 190 0 190 0 0 25 0 25 -190 0 -190 0 0 -25z"/>
<path d="M4770 4590 c0 -25 4 -30 25 -30 21 0 25 5 25 30 0 25 -4 30 -25 30
-21 0 -25 -5 -25 -30z"/>
<path d="M4990 4590 c0 -25 4 -30 25 -30 21 0 25 5 25 30 0 25 -4 30 -25 30
-21 0 -25 -5 -25 -30z"/>
<path d="M5100 4590 c0 -25 4 -30 25 -30 21 0 25 5 25 30 0 25 -4 30 -25 30
-21 0 -25 -5 -25 -30z"/>
<path d="M5314 4606 c-10 -26 4 -48 28 -44 17 2 23 10 23 28 0 18 -6 26 -23
28 -13 2 -25 -3 -28 -12z"/>
<path d="M5424 4606 c-10 -26 4 -48 28 -44 17 2 23 10 23 28 0 18 -6 26 -23
28 -13 2 -25 -3 -28 -12z"/>
<path d="M6660 8255 c0 -23 3 -25 50 -25 47 0 50 2 50 25 0 23 -3 25 -50 25
-47 0 -50 -2 -50 -25z"/>
<path d="M6820 8255 c0 -25 1 -25 80 -25 79 0 80 0 80 25 0 25 -1 25 -80 25
-79 0 -80 0 -80 -25z"/>
<path d="M7150 8255 l0 -25 190 0 190 0 0 25 0 25 -190 0 -190 0 0 -25z"/>
<path d="M7580 8255 l0 -25 110 0 110 0 0 25 0 25 -110 0 -110 0 0 -25z"/>
<path d="M6440 8080 l0 -30 350 0 350 0 0 30 0 30 -350 0 -350 0 0 -30z"/>
<path d="M7310 8080 l0 -30 245 0 245 0 0 30 0 30 -245 0 -245 0 0 -30z"/>
<path d="M6600 7905 c0 -25 1 -25 80 -25 79 0 80 0 80 25 0 25 -1 25 -80 25
-79 0 -80 0 -80 -25z"/>
<path d="M6930 7905 l0 -25 190 0 190 0 0 25 0 25 -190 0 -190 0 0 -25z"/>
<path d="M7360 7905 l0 -25 110 0 110 0 0 25 0 25 -110 0 -110 0 0 -25z"/>
<path d="M7640 7905 c0 -25 1 -25 80 -25 79 0 80 0 80 25 0 25 -1 25 -80 25
-79 0 -80 0 -80 -25z"/>
<path d="M6440 7555 l0 -25 245 0 245 0 0 25 0 25 -245 0 -245 0 0 -25z"/>
<path d="M6980 7555 l0 -25 135 0 135 0 0 25 0 25 -135 0 -135 0 0 -25z"/>
<path d="M7310 7555 l0 -25 245 0 245 0 0 25 0 25 -245 0 -245 0 0 -25z"/>
<path d="M6660 7385 l0 -25 190 0 190 0 0 25 0 25 -190 0 -190 0 0 -25z"/>
<path d="M7090 7385 l0 -25 190 0 190 0 0 25 0 25 -190 0 -190 0 0 -25z"/>
<path d="M7640 7385 c0 -25 1 -25 80 -25 79 0 80 0 80 25 0 25 -1 25 -80 25
-79 0 -80 0 -80 -25z"/>
<path d="M6550 7205 l0 -25 135 0 135 0 0 25 0 25 -135 0 -135 0 0 -25z"/>
<path d="M6870 7205 c0 -26 0 -26 83 -23 76 3 82 5 85 26 3 21 1 22 -82 22
-85 0 -86 0 -86 -25z"/>
<path d="M7200 7205 l0 -25 190 0 190 0 0 25 0 25 -190 0 -190 0 0 -25z"/>
<path d="M7640 7205 c0 -25 1 -25 80 -25 79 0 80 0 80 25 0 25 -1 25 -80 25
-79 0 -80 0 -80 -25z"/>
<path d="M6710 7035 l0 -25 165 0 165 0 0 25 0 25 -165 0 -165 0 0 -25z"/>
<path d="M7090 7035 l0 -25 110 0 110 0 0 25 0 25 -110 0 -110 0 0 -25z"/>
<path d="M7470 7035 l0 -25 165 0 165 0 0 25 0 25 -165 0 -165 0 0 -25z"/>
<path d="M6440 6860 l0 -30 243 2 242 3 0 25 0 25 -242 3 -243 2 0 -30z"/>
<path d="M6987 6883 c-4 -3 -7 -17 -7 -30 0 -23 0 -23 135 -23 l135 0 0 30 0
30 -128 0 c-71 0 -132 -3 -135 -7z"/>
<path d="M7310 6860 l0 -30 245 0 245 0 0 30 0 30 -245 0 -245 0 0 -30z"/>
<path d="M6490 6685 c0 -25 1 -25 80 -25 79 0 80 0 80 25 0 25 -1 25 -80 25
-79 0 -80 0 -80 -25z"/>
<path d="M6820 6685 c0 -20 5 -25 25 -25 20 0 25 5 25 25 0 20 -5 25 -25 25
-20 0 -25 -5 -25 -25z"/>
<path d="M6930 6685 c0 -25 1 -25 80 -25 79 0 80 0 80 25 0 25 -1 25 -80 25
-79 0 -80 0 -80 -25z"/>
<path d="M7260 6685 c0 -20 5 -25 25 -25 20 0 25 5 25 25 0 20 -5 25 -25 25
-20 0 -25 -5 -25 -25z"/>
<path d="M7360 6685 c0 -25 1 -25 85 -25 84 0 85 0 85 25 0 25 -1 25 -85 25
-84 0 -85 0 -85 -25z"/>
<path d="M7690 6685 c0 -24 3 -25 55 -25 52 0 55 1 55 25 0 24 -3 25 -55 25
-52 0 -55 -1 -55 -25z"/>
<path d="M6490 6510 l0 -30 135 0 135 0 0 30 0 30 -135 0 -135 0 0 -30z"/>
<path d="M6820 6510 l0 -30 80 0 80 0 0 30 0 30 -80 0 -80 0 0 -30z"/>
<path d="M7150 6510 l0 -30 160 0 160 0 0 30 0 30 -160 0 -160 0 0 -30z"/>
<path d="M7530 6510 l0 -30 135 0 135 0 0 30 0 30 -135 0 -135 0 0 -30z"/>
<path d="M6930 6335 l0 -25 435 0 435 0 0 25 0 25 -435 0 -435 0 0 -25z"/>
<path d="M6492 6163 l3 -28 323 -3 322 -2 0 30 0 30 -326 0 -325 0 3 -27z"/>
<path d="M6600 5985 l0 -25 135 0 135 0 0 25 0 25 -135 0 -135 0 0 -25z"/>
<path d="M7040 5985 l0 -25 190 0 190 0 0 25 0 25 -190 0 -190 0 0 -25z"/>
<path d="M6550 5465 c0 -23 3 -25 50 -25 47 0 50 2 50 25 0 23 -3 25 -50 25
-47 0 -50 -2 -50 -25z"/>
<path d="M6710 5465 l0 -25 165 0 165 0 0 25 0 25 -165 0 -165 0 0 -25z"/>
<path d="M7090 5465 l0 -25 110 0 110 0 0 25 0 25 -110 0 -110 0 0 -25z"/>
<path d="M7680 4765 c0 -16 6 -25 15 -25 9 0 15 9 15 25 0 16 -6 25 -15 25 -9
0 -15 -9 -15 -25z"/>
<path d="M7760 4765 c0 -18 5 -25 20 -25 15 0 20 7 20 25 0 18 -5 25 -20 25
-15 0 -20 -7 -20 -25z"/>
<path d="M7235 4538 c-2 -53 -39 -304 -47 -314 -6 -8 -1 -13 14 -17 43 -10
278 -40 282 -36 2 2 6 20 9 40 5 35 5 36 -31 37 -21 1 -70 7 -109 13 -56 9
-73 16 -73 28 0 9 9 71 18 138 l18 122 -20 5 c-43 12 -61 7 -61 -16z"/>
<path d="M7623 4503 c6 -9 -48 -316 -58 -333 -7 -11 3 -16 57 -25 32 -5 36 -3
31 13 -4 17 43 307 53 323 6 10 -4 15 -49 23 -22 4 -37 4 -34 -1z"/>
<path d="M7915 4410 c-36 -11 -90 -61 -112 -104 -26 -49 -28 -136 -4 -173 34
-55 51 -61 218 -88 l31 -6 7 58 c4 32 10 72 15 89 7 31 6 32 -29 38 -56 9 -56
9 -53 -39 3 -34 0 -46 -12 -51 -23 -9 -83 4 -101 22 -34 35 -5 147 45 174 29
16 65 12 92 -10 l25 -19 28 29 27 28 -38 25 c-45 30 -97 40 -139 27z"/>
<path d="M8725 4404 c-71 -7 -133 -13 -137 -13 -5 -1 -8 -22 -8 -47 0 -36 3
-44 13 -36 6 6 34 12 62 13 l50 3 6 -49 c4 -28 10 -89 14 -137 l7 -88 44 0
c34 0 43 3 37 13 -14 22 -30 261 -19 270 6 4 35 6 64 5 46 -3 52 -1 52 17 0
43 -12 65 -34 64 -11 -1 -79 -8 -151 -15z"/>
<path d="M8188 4373 c9 -3 12 -48 12 -173 0 -125 -3 -170 -12 -173 -7 -3 14
-6 47 -6 46 -1 56 2 47 11 -7 7 -12 38 -12 70 l0 58 91 0 91 0 -4 -70 -3 -70
45 0 45 0 0 180 0 180 -45 0 -45 0 3 -70 4 -70 -91 0 -91 0 0 58 c0 32 5 63
12 70 9 9 -1 12 -47 11 -33 0 -54 -3 -47 -6z"/>
<path d="M3930 4791 c0 -24 -117 -293 -132 -302 -8 -5 -4 -11 12 -17 14 -6 79
-33 144 -61 66 -28 121 -49 123 -48 1 2 9 20 18 40 14 34 14 37 -1 37 -27 0
-184 72 -184 84 0 7 23 65 50 130 28 66 49 120 48 121 -2 2 -20 10 -40 18 -36
15 -38 15 -38 -2z"/>
<path d="M4323 4621 c3 -12 -183 -261 -200 -268 -8 -3 32 -39 99 -90 l113 -84
27 33 c17 21 22 34 15 37 -7 2 -43 26 -80 54 -63 46 -67 51 -54 70 21 32 29
31 81 -9 l48 -37 24 29 23 29 -31 25 c-80 63 -74 54 -55 84 l18 26 67 -51 c37
-28 69 -57 72 -65 4 -11 13 -5 33 22 15 21 23 41 19 45 -25 21 -212 159 -217
159 -3 0 -4 -4 -2 -9z"/>
<path d="M4590 4355 c-19 -14 -30 -25 -24 -25 15 0 77 -91 67 -100 -26 -24
-207 -150 -215 -150 -5 0 3 -17 19 -39 21 -29 30 -36 38 -26 5 7 55 46 109 86
l99 72 34 -39 c18 -21 33 -45 33 -52 0 -14 17 -7 54 21 18 14 15 20 -75 145
-52 72 -96 131 -99 131 -3 0 -21 -11 -40 -24z"/>
<path d="M4896 3892 c-23 -16 -33 -28 -25 -30 8 -2 27 -22 42 -44 35 -49 38
-45 -104 -141 l-97 -65 25 -35 25 -35 23 22 c13 11 64 49 113 84 l91 62 31
-44 c16 -25 30 -49 30 -55 0 -6 16 -1 35 11 19 13 33 28 31 34 -3 8 -165 242
-180 261 -1 1 -19 -10 -40 -25z"/>
<path d="M5120 3614 c0 -11 -214 -197 -251 -219 -15 -9 -13 -14 17 -49 19 -22
34 -33 34 -25 0 8 21 32 47 54 l46 39 39 -45 c79 -89 78 -86 27 -130 -24 -21
-50 -39 -57 -39 -8 0 1 -17 20 -40 18 -21 34 -35 36 -30 6 15 249 220 262 220
6 0 -4 18 -22 41 -23 29 -34 36 -38 26 -3 -8 -25 -31 -50 -52 l-45 -37 -28 33
c-16 19 -40 49 -54 67 l-26 33 28 29 c15 16 40 35 55 42 l28 13 -34 40 c-19
22 -34 35 -34 29z"/>
<path d="M6884 3298 l-112 -70 81 -126 c44 -70 85 -139 91 -154 l12 -28 116
73 117 72 -22 37 c-11 21 -23 34 -26 29 -3 -4 -39 -29 -79 -55 -70 -44 -75
-46 -88 -29 -22 29 -17 39 36 73 28 18 50 35 50 39 0 3 -8 18 -18 33 l-17 27
-55 -34 -55 -34 -17 22 c-10 12 -18 24 -18 27 0 10 152 100 161 95 5 -4 0 10
-12 29 -12 20 -24 38 -28 40 -3 2 -56 -28 -117 -66z"/>
<path d="M5383 3306 c0 -15 -159 -272 -174 -282 -6 -3 43 -39 107 -79 l118
-74 23 34 c27 39 27 42 11 42 -20 0 -148 84 -148 97 0 6 7 19 15 29 13 18 16
17 69 -17 l55 -35 20 32 20 32 -54 35 c-30 19 -55 37 -55 40 0 3 8 15 18 27
l17 23 65 -41 c36 -22 70 -47 76 -55 10 -12 16 -9 34 21 13 20 19 40 14 44
-12 11 -222 141 -227 141 -2 0 -4 -6 -4 -14z"/>
<path d="M5661 3128 c-5 -18 -24 -87 -41 -153 -17 -66 -35 -128 -40 -137 -14
-24 -13 -25 18 -31 15 -3 34 -8 42 -11 12 -5 18 7 27 55 14 71 20 81 51 72 16
-4 35 -28 62 -82 46 -92 60 -107 89 -91 27 14 26 30 -4 90 -14 27 -25 51 -25
54 0 2 15 7 34 10 39 7 86 56 86 87 0 33 -28 76 -62 97 -18 11 -69 30 -113 42
-44 12 -87 23 -97 26 -11 3 -19 -5 -27 -28z m197 -104 c36 -24 28 -44 -19 -44
-54 0 -129 20 -129 34 0 6 3 21 6 32 6 21 7 21 62 7 32 -8 67 -21 80 -29z"/>
<path d="M6575 3134 c-38 -14 -89 -32 -113 -41 -33 -12 -40 -18 -32 -28 18
-21 130 -307 124 -316 -8 -14 -4 -12 107 36 123 53 169 94 169 151 0 27 -7 43
-29 63 -22 20 -28 34 -24 50 9 33 -16 78 -52 95 -45 22 -68 20 -150 -10z m125
-67 c0 -8 -8 -21 -17 -30 -17 -15 -107 -57 -122 -57 -8 0 -34 50 -29 55 2 2
26 13 53 24 59 23 115 27 115 8z m54 -126 c9 -14 -47 -57 -99 -77 -50 -18 -64
-12 -65 27 0 32 148 77 164 50z"/>
<path d="M6013 3074 c5 -9 -18 -292 -27 -330 -5 -19 1 -21 127 -31 73 -6 135
-9 140 -6 4 2 7 22 7 44 0 24 -4 38 -10 34 -5 -3 -48 -3 -95 1 l-86 7 3 31 3
31 68 -4 67 -3 0 35 c0 39 -14 47 -87 47 -44 0 -48 5 -37 47 6 21 10 22 73 17
36 -3 78 -10 94 -14 27 -9 27 -8 27 34 l0 43 -72 7 c-40 3 -102 9 -137 12 -36
4 -61 3 -58 -2z"/>
<path d="M5050 1935 c-47 -30 -89 -57 -95 -59 -6 -3 -5 -8 3 -14 18 -13 -77
-429 -103 -448 -18 -14 -9 -17 105 -43 65 -15 72 -14 59 7 -8 13 4 82 56 305
37 158 65 292 63 297 -2 5 -41 -15 -88 -45z"/>
<path d="M6710 1958 c-24 -13 -58 -40 -74 -61 -28 -35 -31 -46 -31 -107 0 -55
4 -74 22 -99 l23 -30 -25 -37 c-90 -133 14 -284 199 -286 187 -3 330 147 272
286 -8 18 -34 50 -58 70 -44 37 -45 38 -35 76 19 69 -34 164 -110 196 -50 22
-132 18 -183 -8z m152 -143 c9 -20 8 -28 -6 -44 -23 -26 -66 -33 -93 -15 -47
30 -15 84 49 84 31 0 41 -5 50 -25z m78 -220 c38 -20 38 -46 0 -79 -57 -47
-133 -55 -187 -20 -84 54 94 147 187 99z"/>
<path d="M5412 1909 c-76 -38 -119 -135 -93 -210 11 -31 9 -34 -25 -63 -90
-73 -86 -200 9 -281 109 -94 310 -88 397 11 58 66 60 146 6 225 l-25 37 19 38
c83 162 -115 328 -288 243z m127 -120 c35 -12 51 -50 31 -74 -31 -38 -127 -4
-118 42 2 13 37 40 54 43 1 0 15 -5 33 -11z m23 -255 c41 -21 54 -51 32 -75
-42 -47 -158 -43 -204 6 -29 31 -22 56 20 78 39 20 104 16 152 -9z"/>
<path d="M4574 1891 c-94 -57 -50 -201 60 -201 80 0 129 66 107 141 -21 71
-102 100 -167 60z"/>
<path d="M6110 1897 c-55 -17 -143 -111 -169 -181 -28 -74 -44 -235 -30 -292
24 -93 112 -154 233 -162 230 -14 367 194 220 335 -57 55 -131 78 -226 70 -37
-3 -68 -3 -68 0 0 3 9 21 21 40 40 64 121 83 199 48 l39 -18 45 49 c24 27 42
53 39 57 -3 5 -33 22 -67 38 -50 24 -73 29 -131 28 -38 -1 -86 -6 -105 -12z
m156 -399 c22 -22 24 -29 14 -48 -40 -74 -237 -60 -228 17 8 64 159 86 214 31z"/>
<path d="M7303 1890 c-42 -25 -62 -85 -43 -130 30 -72 120 -94 179 -44 105 88
-18 246 -136 174z"/>
<path d="M3314 10866 c-28 -28 -34 -42 -34 -76 0 -57 50 -110 104 -110 74 0
116 43 116 118 -1 61 -47 102 -115 102 -29 0 -45 -8 -71 -34z"/>
<path d="M8555 10888 c-35 -19 -55 -52 -55 -91 0 -75 42 -117 116 -117 54 0
104 53 104 110 0 34 -6 48 -34 76 -27 27 -42 34 -72 34 -22 0 -48 -6 -59 -12z"/>
<path d="M3120 10763 c-30 -11 -70 -57 -76 -89 -19 -103 111 -172 189 -100 84
78 -6 228 -113 189z"/>
<path d="M8793 10754 c-65 -33 -80 -128 -28 -179 52 -53 148 -36 180 32 45 95
-58 195 -152 147z"/>
<path d="M2885 10610 c-97 -40 -90 -173 11 -209 35 -12 44 -12 75 3 40 19 69
61 69 101 0 79 -83 135 -155 105z"/>
<path d="M9018 10605 c-80 -45 -73 -161 11 -201 31 -15 40 -15 75 -3 52 19 81
59 80 111 -2 78 -97 132 -166 93z"/>
<path d="M2649 10445 c-15 -8 -34 -31 -44 -51 -51 -108 86 -207 175 -126 100
88 -14 241 -131 177z"/>
<path d="M9243 10450 c-37 -15 -65 -69 -59 -115 14 -119 182 -131 217 -16 27
91 -66 168 -158 131z"/>
<path d="M2443 10280 c-37 -15 -65 -69 -59 -115 14 -116 179 -131 216 -20 31
93 -63 173 -157 135z"/>
<path d="M9444 10271 c-42 -26 -60 -78 -44 -126 37 -111 202 -96 216 20 12 96
-88 157 -172 106z"/>
<path d="M2214 10076 c-73 -73 -27 -186 76 -186 69 0 110 43 110 115 0 55 -53
105 -110 105 -34 0 -48 -6 -76 -34z"/>
<path d="M9634 10076 c-73 -73 -27 -186 76 -186 69 0 110 43 110 115 0 55 -53
105 -110 105 -34 0 -48 -6 -76 -34z"/>
<path d="M2033 9901 c-42 -26 -62 -86 -43 -131 31 -74 126 -96 180 -41 49 49
52 105 7 157 -31 36 -99 43 -144 15z"/>
<path d="M9853 9910 c-28 -11 -63 -66 -63 -98 0 -31 25 -77 52 -96 32 -23 100
-20 131 4 14 11 31 36 37 55 31 93 -63 173 -157 135z"/>
<path d="M1834 9686 c-93 -93 17 -233 135 -172 33 17 51 54 51 102 0 54 -53
104 -110 104 -34 0 -48 -6 -76 -34z"/>
<path d="M10014 9686 c-91 -91 11 -229 129 -175 32 15 57 60 57 104 0 55 -52
105 -110 105 -34 0 -48 -6 -76 -34z"/>
<path d="M1668 9490 c-40 -31 -53 -73 -39 -121 32 -106 190 -102 217 6 9 37
-3 74 -36 106 -36 36 -103 40 -142 9z"/>
<path d="M10190 9481 c-53 -52 -52 -113 3 -164 28 -26 37 -29 79 -25 55 6 83
26 98 74 25 74 -28 144 -107 144 -36 0 -50 -6 -73 -29z"/>
<path d="M1523 9285 c-59 -25 -83 -117 -43 -167 67 -86 200 -42 200 66 0 50
-21 83 -66 102 -41 17 -50 17 -91 -1z"/>
<path d="M10384 9286 c-43 -19 -64 -53 -64 -102 0 -108 133 -152 200 -66 41
51 16 142 -45 168 -42 17 -51 17 -91 0z"/>
<path d="M1365 9058 c-37 -20 -55 -51 -55 -98 0 -69 43 -110 115 -110 55 0
105 53 105 110 0 34 -6 48 -34 76 -27 27 -42 34 -72 34 -22 0 -48 -6 -59 -12z"/>
<path d="M10504 9036 c-28 -28 -34 -42 -34 -76 0 -57 50 -110 105 -110 72 0
115 41 115 110 0 69 -43 110 -115 110 -29 0 -45 -8 -71 -34z"/>
<path d="M1219 8825 c-79 -43 -69 -165 18 -201 91 -39 185 65 139 154 -29 56
-101 77 -157 47z"/>
<path d="M10664 8821 c-82 -50 -65 -165 30 -201 86 -32 171 69 130 155 -29 62
-100 83 -160 46z"/>
<path d="M1084 8581 c-63 -38 -66 -134 -7 -181 38 -30 103 -27 142 6 105 88
-18 247 -135 175z"/>
<path d="M10794 8581 c-95 -58 -52 -201 60 -201 53 0 90 26 106 75 33 99 -75
181 -166 126z"/>
<path d="M984 8346 c-43 -19 -64 -53 -64 -102 0 -112 144 -154 201 -60 36 60
14 136 -46 162 -42 17 -51 17 -91 0z"/>
<path d="M10923 8345 c-59 -25 -80 -102 -44 -161 57 -94 201 -52 201 60 0 50
-21 83 -66 102 -41 17 -50 17 -91 -1z"/>
<path d="M895 8102 c-74 -25 -105 -95 -70 -162 44 -85 163 -75 201 16 33 78
-52 172 -131 146z"/>
<path d="M11035 8096 c-82 -36 -93 -137 -20 -194 91 -72 218 47 159 147 -29
50 -88 70 -139 47z"/>
<path d="M784 7841 c-58 -25 -84 -118 -48 -170 43 -61 147 -60 184 2 46 74 7
164 -75 172 -22 3 -50 1 -61 -4z"/>
<path d="M11124 7841 c-91 -39 -81 -185 15 -211 109 -29 188 97 114 180 -30
34 -89 48 -129 31z"/>
<path d="M704 7581 c-61 -26 -85 -122 -43 -174 67 -86 199 -34 199 77 0 71
-88 126 -156 97z"/>
<path d="M11204 7581 c-88 -38 -81 -181 10 -211 110 -36 195 95 119 180 -30
34 -89 48 -129 31z"/>
<path d="M632 7314 c-114 -58 -54 -233 71 -210 64 12 104 82 83 145 -21 64
-95 95 -154 65z"/>
<path d="M11273 7315 c-97 -42 -81 -191 23 -211 127 -24 187 154 70 210 -41
19 -51 19 -93 1z"/>
<path d="M555 7027 c-30 -30 -35 -42 -35 -80 0 -54 27 -92 74 -106 89 -24 159
42 142 132 -9 47 -46 78 -100 84 -42 5 -48 3 -81 -30z"/>
<path d="M11325 7051 c-32 -13 -55 -46 -62 -85 -14 -86 57 -148 142 -125 48
14 75 52 75 106 0 38 -5 50 -34 79 -35 35 -75 43 -121 25z"/>
<path d="M528 6773 c-58 -37 -67 -125 -19 -174 24 -24 38 -29 76 -29 40 0 52
5 82 35 33 33 35 39 30 81 -6 61 -40 95 -98 100 -31 3 -52 -1 -71 -13z"/>
<path d="M11365 6781 c-35 -15 -57 -49 -62 -95 -5 -42 -3 -48 30 -81 30 -30
42 -35 82 -35 71 0 114 49 106 120 -9 76 -84 120 -156 91z"/>
<path d="M484 6486 c-74 -74 -27 -185 78 -186 39 0 52 5 77 31 26 25 31 39 31
76 0 38 -5 50 -34 79 -28 28 -42 34 -76 34 -34 0 -48 -6 -76 -34z"/>
<path d="M11364 6486 c-29 -29 -34 -41 -34 -79 0 -37 5 -51 31 -76 53 -53 144
-40 178 26 37 72 -18 163 -99 163 -34 0 -48 -6 -76 -34z"/>
<path d="M501 6237 c-92 -47 -83 -171 15 -206 36 -12 44 -12 77 4 21 10 44 30
52 46 51 97 -49 205 -144 156z"/>
<path d="M11398 6235 c-79 -44 -75 -161 7 -199 118 -56 215 100 117 187 -28
25 -90 31 -124 12z"/>
<path d="M500 5962 c-49 -24 -76 -80 -61 -125 24 -71 98 -105 159 -73 82 42
81 161 -2 200 -43 20 -53 20 -96 -2z"/>
<path d="M11402 5964 c-81 -41 -81 -158 0 -200 89 -46 193 48 154 139 -26 63
-96 90 -154 61z"/>
<path d="M494 5682 c-30 -24 -44 -55 -44 -97 0 -55 53 -105 110 -105 34 0 48
6 76 34 29 29 34 41 34 79 0 36 -6 51 -29 76 -25 27 -36 31 -78 31 -30 0 -56
-7 -69 -18z"/>
<path d="M11359 5669 c-23 -25 -29 -40 -29 -76 0 -38 5 -50 34 -79 28 -28 42
-34 76 -34 57 0 110 50 110 105 0 74 -40 114 -113 115 -42 0 -53 -4 -78 -31z"/>
<path d="M515 5408 c-65 -58 -40 -171 43 -194 68 -19 131 27 139 100 5 42 3
48 -30 81 -30 30 -42 35 -80 35 -33 0 -53 -6 -72 -22z"/>
<path d="M11333 5395 c-33 -33 -35 -39 -30 -81 6 -54 37 -91 84 -100 63 -12
107 13 128 72 26 77 -21 144 -102 144 -38 0 -50 -5 -80 -35z"/>
<path d="M593 5159 c-46 -13 -73 -53 -73 -106 0 -38 5 -50 34 -79 40 -40 83
-45 134 -14 111 68 32 235 -95 199z"/>
<path d="M11343 5163 c-12 -2 -33 -15 -47 -28 -78 -72 -17 -205 89 -191 90 11
129 123 66 187 -16 16 -36 29 -44 29 -9 0 -21 2 -29 4 -7 2 -23 1 -35 -1z"/>
<path d="M628 4885 c-79 -45 -74 -161 8 -200 85 -40 177 38 153 131 -18 66
-102 102 -161 69z"/>
<path d="M11271 4887 c-60 -31 -82 -114 -44 -166 11 -14 38 -32 59 -40 36 -12
44 -12 77 4 21 10 44 30 52 46 51 97 -49 205 -144 156z"/>
<path d="M704 4626 c-70 -31 -87 -120 -35 -178 26 -29 35 -33 81 -33 46 0 55
4 81 33 51 56 32 149 -36 178 -42 17 -51 17 -91 0z"/>
<path d="M11203 4625 c-66 -28 -84 -121 -34 -177 26 -29 35 -33 81 -33 46 0
55 4 81 33 53 59 35 148 -37 178 -41 17 -50 17 -91 -1z"/>
<path d="M784 4366 c-70 -31 -87 -120 -35 -178 26 -29 35 -33 81 -33 46 0 55
4 81 33 54 61 28 160 -48 181 -46 13 -41 13 -79 -3z"/>
<path d="M11132 4369 c-71 -21 -95 -123 -43 -181 26 -29 35 -33 81 -33 46 0
55 4 81 33 52 58 33 149 -38 178 -36 16 -36 16 -81 3z"/>
<path d="M868 4104 c-54 -29 -73 -101 -41 -154 48 -83 170 -68 200 24 32 94
-71 178 -159 130z"/>
<path d="M11015 4098 c-42 -33 -58 -79 -42 -124 30 -92 152 -107 200 -24 60
101 -66 220 -158 148z"/>
<path d="M984 3860 c-61 -24 -85 -121 -44 -173 47 -59 143 -56 181 7 58 95
-35 208 -137 166z"/>
<path d="M10918 3855 c-82 -46 -72 -176 16 -205 110 -36 195 95 119 180 -34
38 -93 49 -135 25z"/>
<path d="M1077 3600 c-59 -47 -56 -143 7 -181 117 -72 240 87 135 175 -39 33
-104 36 -142 6z"/>
<path d="M10781 3594 c-57 -47 -50 -137 13 -175 91 -55 199 27 166 126 -25 75
-118 101 -179 49z"/>
<path d="M1233 3375 c-59 -25 -85 -92 -58 -150 30 -62 101 -83 161 -46 81 49
65 165 -29 200 -35 13 -35 13 -74 -4z"/>
<path d="M10685 3376 c-65 -29 -91 -96 -61 -154 43 -84 161 -81 201 5 16 33
16 41 4 77 -23 65 -87 98 -144 72z"/>
<path d="M1341 3119 c-53 -53 -40 -144 26 -178 72 -37 163 18 163 99 0 34 -6
48 -34 76 -29 29 -41 34 -79 34 -37 0 -51 -5 -76 -31z"/>
<path d="M10504 3116 c-28 -28 -34 -42 -34 -76 0 -57 50 -110 105 -110 73 0
114 40 115 112 0 39 -5 52 -31 77 -25 26 -39 31 -76 31 -38 0 -50 -5 -79 -34z"/>
<path d="M1513 2911 c-39 -24 -53 -49 -53 -93 0 -78 73 -132 145 -108 49 16
75 53 75 106 0 88 -93 141 -167 95z"/>
<path d="M10384 2920 c-61 -24 -85 -121 -44 -173 67 -85 200 -36 200 73 0 77
-82 130 -156 100z"/>
<path d="M1674 2691 c-63 -38 -66 -134 -7 -181 40 -31 107 -27 143 9 52 51 52
111 0 162 -35 35 -89 39 -136 10z"/>
<path d="M10191 2683 c-53 -53 -53 -112 -1 -164 23 -23 37 -29 73 -29 79 0
132 70 107 144 -16 48 -43 68 -99 74 -45 4 -53 2 -80 -25z"/>
<path d="M1854 2489 c-30 -15 -54 -61 -54 -104 0 -55 52 -105 110 -105 34 0
48 6 76 34 37 37 45 82 22 131 -21 48 -100 70 -154 44z"/>
<path d="M10031 2486 c-32 -18 -50 -53 -51 -99 0 -31 7 -46 34 -73 28 -28 42
-34 76 -34 58 0 110 50 110 105 0 91 -90 145 -169 101z"/>
<path d="M2028 2280 c-40 -31 -53 -73 -39 -121 32 -106 190 -102 217 6 9 37
-3 74 -36 106 -36 36 -103 40 -142 9z"/>
<path d="M9830 2271 c-33 -32 -45 -69 -36 -106 26 -101 172 -114 213 -17 32
76 -20 152 -104 152 -36 0 -50 -6 -73 -29z"/>
<path d="M2224 2092 c-30 -24 -44 -55 -44 -97 0 -55 53 -105 110 -105 57 0
110 50 110 105 0 72 -41 115 -110 115 -28 0 -53 -7 -66 -18z"/>
<path d="M9644 2092 c-30 -24 -44 -55 -44 -97 0 -55 53 -105 110 -105 57 0
110 50 110 105 0 72 -41 115 -110 115 -28 0 -53 -7 -66 -18z"/>
<path d="M2421 1904 c-57 -47 -50 -137 13 -175 91 -55 199 27 166 126 -25 75
-118 101 -179 49z"/>
<path d="M9437 1910 c-59 -47 -56 -143 7 -181 117 -72 240 87 135 175 -39 33
-104 36 -142 6z"/>
<path d="M2637 1739 c-15 -11 -32 -37 -38 -58 -9 -32 -8 -44 6 -75 55 -116
227 -67 211 59 -10 83 -114 126 -179 74z"/>
<path d="M9220 1733 c-41 -37 -50 -94 -21 -141 48 -75 157 -68 196 14 51 108
-86 207 -175 127z"/>
<path d="M2883 1595 c-70 -30 -90 -121 -38 -176 53 -54 138 -47 176 15 36 59
15 132 -47 161 -39 18 -50 18 -91 0z"/>
<path d="M9024 1595 c-82 -42 -84 -159 -2 -201 89 -46 193 48 154 139 -25 62
-96 90 -152 62z"/>
<path d="M3103 1444 c-18 -9 -39 -31 -48 -51 -52 -110 87 -213 174 -129 59 56
46 152 -23 181 -44 19 -63 19 -103 -1z"/>
<path d="M8792 1445 c-32 -14 -62 -63 -62 -101 0 -62 72 -121 134 -110 40 8
84 52 92 93 9 43 -19 98 -61 117 -40 19 -60 20 -103 1z"/>
<path d="M3314 1286 c-28 -28 -34 -42 -34 -76 0 -81 91 -136 163 -99 74 38 77
158 6 195 -50 25 -97 18 -135 -20z"/>
<path d="M8551 1306 c-71 -39 -68 -157 6 -195 72 -37 163 18 163 99 0 34 -6
48 -34 76 -27 27 -42 34 -72 34 -22 -1 -50 -7 -63 -14z"/>
<path d="M3583 1186 c-84 -38 -81 -161 5 -202 74 -35 154 17 156 100 1 38 -4
51 -29 76 -37 36 -87 46 -132 26z"/>
<path d="M8325 1190 c-11 -4 -31 -20 -45 -35 -54 -58 -15 -166 66 -181 64 -12
134 48 134 116 0 72 -87 129 -155 100z"/>
<path d="M3833 1075 c-59 -25 -83 -117 -43 -167 67 -86 200 -42 200 66 0 50
-21 83 -66 102 -41 17 -50 17 -91 -1z"/>
<path d="M8074 1076 c-43 -19 -64 -53 -64 -102 0 -108 133 -152 200 -66 41 51
16 142 -45 168 -42 17 -51 17 -91 0z"/>
<path d="M4083 974 c-66 -33 -80 -130 -26 -180 56 -52 146 -35 178 33 45 95
-58 195 -152 147z"/>
<path d="M7830 983 c-30 -11 -70 -57 -76 -89 -13 -73 58 -143 131 -130 42 8
83 49 91 91 15 80 -71 155 -146 128z"/>
<path d="M4345 891 c-35 -15 -57 -49 -62 -95 -5 -42 -3 -48 30 -81 30 -30 42
-35 80 -35 54 0 92 27 106 75 26 94 -64 172 -154 136z"/>
<path d="M7550 884 c-46 -33 -63 -77 -49 -129 14 -48 52 -75 106 -75 38 0 50
5 80 35 33 33 35 39 30 81 -6 61 -39 95 -98 101 -32 3 -51 -1 -69 -13z"/>
<path d="M4604 815 c-16 -9 -38 -29 -47 -44 -67 -113 86 -229 175 -133 33 36
42 74 25 114 -28 66 -93 93 -153 63z"/>
<path d="M7301 817 c-68 -35 -86 -124 -36 -178 53 -54 138 -47 176 15 36 59
15 132 -47 161 -39 18 -61 19 -93 2z"/>
<path d="M4874 756 c-43 -19 -64 -53 -64 -102 0 -108 133 -152 200 -66 41 51
16 142 -45 168 -42 17 -51 17 -91 0z"/>
<path d="M7033 755 c-59 -25 -83 -117 -43 -167 67 -86 200 -42 200 66 0 50
-21 83 -66 102 -41 17 -50 17 -91 -1z"/>
<path d="M5150 713 c-28 -10 -59 -46 -70 -79 -9 -25 -8 -40 4 -67 36 -87 152
-97 199 -17 53 88 -37 198 -133 163z"/>
<path d="M6758 705 c-54 -30 -73 -102 -41 -155 47 -80 163 -70 199 17 39 92
-71 187 -158 138z"/>
<path d="M5413 675 c-83 -36 -91 -152 -13 -198 75 -45 170 12 170 101 0 37
-34 80 -76 98 -40 17 -41 17 -81 -1z"/>
<path d="M6513 683 c-34 -7 -83 -68 -83 -104 0 -66 53 -119 119 -119 39 0 96
50 105 91 15 77 -60 149 -141 132z"/>
<path d="M5701 659 c-109 -23 -112 -185 -3 -215 67 -19 131 27 139 99 5 38 1
48 -26 79 -34 39 -59 48 -110 37z"/>
<path d="M6243 662 c-27 -4 -72 -48 -79 -79 -18 -69 26 -132 98 -140 134 -15
168 188 37 216 -19 3 -44 5 -56 3z"/>
<path d="M5943 640 c-40 -24 -53 -48 -53 -98 0 -75 72 -126 145 -102 48 16 75
53 75 104 0 48 -19 80 -60 101 -39 20 -69 19 -107 -5z"/>
</g>
</svg>
